Fixed-Bold.sfdir
StartChar: exclam
Encoding: 33 33 1
Width: 500
Flags: MW
LayerCount: 2
Back
Fore
SplineSet
151 65 m 0
 151 79 168 92 189 113 c 0
 206 131 224 170 249 170 c 0
 261 170 267 157 279 143 c 0
 324 89 349 89 349 63 c 0
 349 37 314 20 299 3 c 0
 283 -15 268 -50 250 -50 c 0
 238 -50 208 -19 195 1 c 0
 183 19 151 38 151 65 c 0
181 688 m 0
 181 712 210 726 255 726 c 0
 299 726 324 720 324 694 c 0
 324 687 321 679 316 655 c 0
 298 557 303 457 264 247 c 0
 262 240 258 236 243 236 c 0
 231 236 225 239 225 245 c 0
 187 543 201 484 195 544 c 0
 187 614 181 642 181 688 c 0
EndSplineSet
EndChar
StartChar: numbersign
Encoding: 35 35 3
Width: 500
Flags: MW
LayerCount: 2
Back
Fore
SplineSet
15 136 m 2
 15 142 l 2
 15 163 15 174 26 174 c 2
 110 174 l 2
 113 174 114 174 114 176 c 0
 121 214 135 285 135 289 c 0
 135 292 132 293 128 293 c 2
 31 293 l 2
 21 293 15 296 15 323 c 0
 15 344 19 358 32 358 c 2
 139 358 l 2
 145 358 148 360 148 365 c 0
 180 551 176 549 180 554 c 0
 185 560 191 561 208 561 c 0
 216 561 232 560 232 549 c 0
 232 543 211 369 211 363 c 0
 211 359 212 358 218 358 c 2
 330 358 l 2
 335 358 339 359 340 365 c 0
 370 551 368 551 372 555 c 0
 378 561 389 561 407 561 c 0
 419 561 431 561 431 551 c 0
 431 542 393 372 393 363 c 0
 393 360 394 358 398 358 c 2
 467 358 l 2
 481 358 485 345 485 319 c 0
 485 296 479 293 470 293 c 2
 388 293 l 2
 384 293 384 291 383 288 c 0
 377 252 365 182 365 179 c 0
 365 176 367 174 372 174 c 2
 468 174 l 2
 478 174 485 171 485 144 c 0
 485 121 480 109 467 109 c 2
 366 109 l 2
 357 109 355 105 354 99 c 0
 316 -78 327 -78 285 -78 c 0
 264 -78 256 -72 256 -65 c 0
 256 -59 291 98 291 103 c 0
 291 108 288 109 283 109 c 2
 208 109 l 2
 163 109 161 107 160 101 c 0
 134 -70 133 -67 132 -70 c 0
 126 -76 118 -78 97 -78 c 0
 83 -78 70 -75 70 -65 c 0
 70 -59 105 97 105 102 c 0
 105 107 102 109 93 109 c 2
 26 109 l 2
 16 109 15 121 15 136 c 2
171 178 m 0
 171 175 175 174 181 174 c 2
 296 174 l 2
 301 174 307 174 308 180 c 0
 324 259 329 282 329 289 c 0
 329 292 330 293 323 293 c 2
 208 293 l 2
 201 293 198 290 197 287 c 0
 189 251 171 182 171 178 c 0
EndSplineSet
EndChar
StartChar: dollar
Encoding: 36 36 4
Width: 500
Flags: MW
LayerCount: 2
Back
Fore
SplineSet
22 91 m 0
 22 93 26 167 46 167 c 0
 67 167 73 141 94 104 c 0
 115 68 169 37 208 37 c 0
 217 37 218 43 218 52 c 0
 218 181 222 170 222 290 c 0
 222 303 201 311 184 316 c 0
 118 336 40 372 40 535 c 0
 40 635 127 679 220 690 c 0
 229 691 234 694 234 714 c 0
 234 726 232 759 232 770 c 0
 232 787 242 794 266 794 c 0
 298 794 298 785 298 767 c 0
 298 727 298 706 298 700 c 0
 298 692 299 686 302 686 c 0
 405 671 432 599 432 591 c 0
 432 571 418 520 406 520 c 0
 400 520 394 525 392 530 c 0
 374 570 335 622 300 622 c 0
 292 622 292 611 292 603 c 0
 292 546 288 494 288 433 c 0
 288 412 289 408 302 405 c 0
 423 373 478 295 478 188 c 0
 478 50 371 -3 296 -22 c 0
 276 -27 274 -25 274 -41 c 2
 274 -59 l 1
 274 -121 l 2
 274 -158 268 -162 242 -162 c 0
 213 -162 210 -152 210 -141 c 0
 210 -108 214 -67 214 -43 c 0
 214 -37 214 -24 208 -24 c 0
 142 -24 62 17 34 53 c 0
 23 66 22 77 22 91 c 0
128 516 m 0
 128 461 160 453 212 437 c 1
 216 437 l 2
 228 437 230 447 230 453 c 0
 230 492 232 533 232 612 c 0
 232 619 227 623 222 623 c 0
 204 623 128 619 128 516 c 0
276 49 m 0
 276 40 278 36 282 36 c 0
 287 36 388 28 388 175 c 0
 388 252 290 277 288 277 c 0
 284 277 282 256 282 247 c 0
 282 140 276 156 276 49 c 0
EndSplineSet
EndChar
StartChar: percent
Encoding: 37 37 5
Width: 500
Flags: MW
LayerCount: 2
Back
Fore
SplineSet
12 349 m 0
 12 450 68 593 152 593 c 0
 205 593 214 536 257 536 c 0
 314 536 384 615 405 640 c 0
 409 645 413 647 417 647 c 0
 422 647 432 643 432 638 c 0
 432 631 429 622 427 617 c 0
 177 0 135 -86 128 -90 c 0
 126 -91 115 -92 113 -92 c 0
 103 -92 94 -79 94 -68 c 0
 94 -54 108 -40 128 3 c 2
 234 243 l 2
 324 446 348 522 348 530 c 0
 348 533 345 534 344 534 c 0
 339 534 330 514 289 502 c 0
 270 496 251 499 248 499 c 0
 247 499 248 499 248 498 c 0
 248 496 251 489 251 479 c 0
 251 404 243 364 210 301 c 0
 192 266 161 219 99 219 c 0
 71 219 12 257 12 349 c 0
102 373 m 0
 102 303 110 261 127 261 c 0
 157 261 172 372 172 460 c 0
 172 510 164 548 151 548 c 0
 117 548 102 454 102 373 c 0
253 69 m 0
 253 177 310 309 408 309 c 0
 468 309 493 252 493 181 c 0
 493 68 431 -79 348 -79 c 0
 284 -79 253 -10 253 69 c 0
343 83 m 0
 343 14 351 -30 368 -30 c 0
 395 -30 414 82 414 169 c 0
 414 218 406 261 393 261 c 0
 360 261 343 164 343 83 c 0
EndSplineSet
EndChar
StartChar: ampersand
Encoding: 38 38 6
Width: 500
Flags: MW
LayerCount: 2
Back
Fore
SplineSet
18 233 m 0
 18 280 36 339 62 368 c 0
 123 436 158 444 158 452 c 0
 158 464 131 485 131 575 c 0
 131 675 189 713 235 713 c 0
 268 713 281 677 291 677 c 0
 296 677 298 698 303 698 c 0
 312 698 312 685 312 674 c 0
 312 671 314 612 314 590 c 0
 314 550 314 548 311 548 c 0
 305 548 290 656 264 656 c 0
 243 656 236 611 236 584 c 0
 236 535 263 456 289 383 c 0
 323 287 358 203 362 203 c 0
 366 203 372 225 372 272 c 0
 372 337 364 345 354 357 c 0
 347 365 338 357 338 385 c 0
 338 400 341 402 350 402 c 0
 376 402 382 400 415 400 c 0
 421 400 423 395 423 387 c 0
 423 366 406 384 404 331 c 0
 403 305 403 270 402 252 c 0
 400 208 387 168 387 159 c 0
 387 146 422 79 445 41 c 0
 451 31 455 31 458 31 c 0
 462 31 466 36 469 36 c 0
 471 36 473 30 473 22 c 0
 473 -11 450 -36 423 -36 c 0
 338 -36 316 51 311 51 c 0
 301 51 272 -41 172 -41 c 0
 129 -41 18 -13 18 233 c 0
117 286 m 0
 117 202 144 67 242 67 c 0
 288 67 288 100 288 109 c 0
 288 119 274 157 210 313 c 0
 173 404 172 408 166 408 c 0
 148 408 117 373 117 286 c 0
EndSplineSet
EndChar
StartChar: parenleft
Encoding: 40 40 8
Width: 500
Flags: MW
LayerCount: 2
Back
Fore
SplineSet
218 278 m 0
 218 593 438 772 461 772 c 0
 481 772 484 762 484 751 c 0
 484 722 286 623 286 277 c 0
 286 -41 481 -168 481 -195 c 0
 481 -208 466 -214 459 -214 c 0
 423 -214 218 0 218 278 c 0
EndSplineSet
EndChar
StartChar: asterisk
Encoding: 42 42 10
Width: 500
Flags: MW
LayerCount: 2
Back
Fore
SplineSet
77 367 m 0
 77 394 185 436 185 447 c 0
 185 461 77 503 77 529 c 0
 77 540 89 572 109 572 c 0
 125 572 192 519 201 519 c 0
 204 519 206 524 206 538 c 0
 206 559 202 591 202 617 c 0
 202 634 209 638 241 638 c 0
 286 638 297 636 297 602 c 0
 297 584 291 557 291 537 c 0
 291 523 293 519 296 519 c 0
 307 519 377 573 389 573 c 0
 407 573 423 545 423 530 c 0
 423 504 314 460 314 448 c 0
 314 433 423 393 423 367 c 0
 423 355 410 324 389 324 c 0
 374 324 305 377 298 377 c 0
 294 377 292 372 292 358 c 0
 292 339 297 315 297 300 c 0
 297 262 293 258 243 258 c 0
 220 258 202 261 202 282 c 0
 202 300 206 331 206 354 c 0
 206 371 205 377 201 377 c 0
 192 377 121 324 109 324 c 0
 90 324 77 355 77 367 c 0
EndSplineSet
EndChar
StartChar: plus
Encoding: 43 43 11
Width: 500
Flags: MW
LayerCount: 2
Back
Fore
SplineSet
7 213 m 0
 7 233 7 243 25 243 c 2
 195 243 l 2
 214 243 217 251 217 262 c 2
 217 438 l 2
 217 453 228 453 249 453 c 0
 270 453 285 453 285 433 c 2
 285 270 l 2
 285 256 286 243 302 243 c 2
 479 243 l 2
 495 243 495 232 495 211 c 0
 495 185 495 176 474 176 c 2
 302 176 l 2
 285 176 285 170 285 158 c 2
 285 -17 l 2
 285 -34 272 -34 255 -34 c 0
 225 -34 217 -34 217 -16 c 2
 217 158 l 2
 217 176 210 176 193 176 c 2
 24 176 l 2
 -3 176 7 187 7 213 c 0
EndSplineSet
EndChar
StartChar: hyphen
Encoding: 45 45 13
Width: 500
Flags: MW
LayerCount: 2
Back
Fore
SplineSet
61 119 m 2
 61 135 l 2
 61 198 79 200 147 220 c 0
 339 277 373 304 406 304 c 0
 433 304 439 280 439 253 c 2
 439 244 l 2
 439 185 423 195 293 153 c 0
 157 108 121 87 85 87 c 0
 63 87 61 101 61 119 c 2
EndSplineSet
EndChar
StartChar: period
Encoding: 46 46 14
Width: 500
Flags: MW
LayerCount: 2
Back
Fore
SplineSet
54 54 m 0
 54 68 76 91 100 112 c 0
 120 130 136 165 164 165 c 0
 176 165 201 135 225 106 c 0
 239 91 270 69 270 54 c 0
 270 36 240 21 218 -0 c 0
 200 -18 181 -53 160 -53 c 0
 136 -53 120 -12 100 3 c 0
 74 21 54 39 54 54 c 0
EndSplineSet
EndChar
StartChar: slash
Encoding: 47 47 15
Width: 500
Flags: MW
LayerCount: 2
Back
Fore
SplineSet
48 -170 m 0
 48 -161 59 -136 68 -113 c 2
 68 -113 378 710 380 717 c 0
 385 732 399 735 418 735 c 0
 428 735 452 733 452 723 c 0
 452 714 443 692 438 679 c 2
 134 -152 l 2
 118 -183 108 -183 86 -183 c 0
 68 -183 48 -183 48 -170 c 0
EndSplineSet
EndChar
StartChar: zero
Encoding: 48 48 16
Width: 500
Flags: MW
LayerCount: 2
Back
Fore
SplineSet
28 323 m 0
 28 575 139 727 266 727 c 0
 404 727 472 563 472 364 c 0
 472 156 395 -26 244 -26 c 0
 75 -26 28 145 28 323 c 0
117 426 m 0
 117 262 206 33 297 33 c 0
 355 33 383 127 383 267 c 0
 383 425 300 639 205 639 c 0
 151 639 117 558 117 426 c 0
EndSplineSet
EndChar
StartChar: one
Encoding: 49 49 17
Width: 500
Flags: MW
LayerCount: 2
Back
Fore
SplineSet
136 600 m 0
 136 616 151 630 171 640 c 0
 206 652 216 646 280 674 c 0
 322 693 342 722 360 722 c 0
 378 722 379 707 379 699 c 0
 379 691 370 659 370 648 c 0
 367 606 360 519 360 316 c 0
 360 215 356 156 356 120 c 0
 356 0 479 61 479 17 c 0
 479 4 460 2 441 2 c 2
 307 2 l 2
 259 2 206 -2 175 -2 c 0
 154 -2 143 4 143 22 c 0
 143 45 159 51 175 51 c 2
 186 51 l 2
 237 51 237 84 237 89 c 0
 245 148 248 252 248 348 c 2
 248 541 l 2
 248 576 244 600 214 600 c 0
 187 600 159 577 147 577 c 0
 145 577 136 584 136 600 c 0
EndSplineSet
EndChar
StartChar: three
Encoding: 51 51 19
Width: 500
Flags: MW
LayerCount: 2
Back
Fore
SplineSet
52 52 m 0
 52 57 54 71 70 71 c 0
 83 71 98 26 172 26 c 0
 281 26 322 155 322 220 c 0
 322 290 296 360 196 360 c 0
 178 360 169 356 166 356 c 0
 156 356 154 364 154 370 c 0
 154 382 165 379 216 430 c 0
 246 460 262 504 262 543 c 0
 262 592 233 634 194 634 c 0
 145 634 108 576 94 576 c 0
 88 576 88 582 88 588 c 0
 88 648 178 725 242 725 c 0
 309 725 378 688 378 604 c 0
 378 530 324 494 268 451 c 0
 255 442 248 436 248 431 c 0
 248 424 304 428 360 395 c 0
 413 364 448 322 448 257 c 0
 448 89 335 -33 204 -33 c 0
 131 -33 52 12 52 52 c 0
EndSplineSet
EndChar
StartChar: four
Encoding: 52 52 20
Width: 500
Flags: MW
LayerCount: 2
Back
Fore
SplineSet
18 205 m 0
 18 232 30 246 300 627 c 0
 332 672 360 727 382 727 c 0
 391 727 400 721 400 707 c 0
 400 701 392 370 392 322 c 0
 392 301 392 297 402 297 c 0
 457 297 454 329 472 329 c 0
 474 329 482 326 482 310 c 0
 482 292 476 274 472 250 c 0
 470 239 467 187 450 187 c 0
 437 187 413 192 402 192 c 0
 391 192 388 186 388 172 c 0
 388 136 392 102 392 39 c 0
 392 -41 392 -22 392 -49 c 0
 392 -99 392 -91 338 -102 c 0
 317 -106 294 -108 288 -108 c 0
 264 -108 254 -89 254 -81 c 0
 254 -71 280 -39 280 185 c 0
 280 191 274 191 268 191 c 2
 148 191 l 2
 109 191 75 187 46 187 c 0
 27 187 18 189 18 205 c 0
124 302 m 0
 124 294 133 292 146 292 c 2
 256 292 l 2
 279 292 282 297 282 314 c 0
 282 322 288 449 288 512 c 0
 288 531 285 541 282 541 c 0
 276 541 124 326 124 302 c 0
EndSplineSet
EndChar
StartChar: five
Encoding: 53 53 21
Width: 500
Flags: MW
LayerCount: 2
Back
Fore
SplineSet
44 20 m 0
 44 33 51 39 58 39 c 0
 77 39 88 17 160 17 c 0
 265 17 332 113 332 225 c 0
 332 304 289 373 192 373 c 0
 132 373 125 359 110 359 c 0
 92 359 88 378 88 386 c 0
 88 412 113 527 134 676 c 0
 136 691 145 704 168 704 c 0
 368 706 377 696 398 718 c 0
 416 731 419 743 432 743 c 0
 439 743 444 735 444 728 c 0
 444 723 444 715 442 708 c 0
 403 600 402 591 380 591 c 0
 373 591 339 593 314 593 c 0
 240 593 189 586 186 582 c 0
 177 567 164 500 164 484 c 0
 164 478 167 473 170 473 c 0
 173 473 190 486 256 486 c 0
 318 486 373 458 404 420 c 0
 440 376 456 320 456 278 c 0
 456 63 310 -40 188 -40 c 0
 138 -40 44 -24 44 20 c 0
EndSplineSet
EndChar
StartChar: six
Encoding: 54 54 22
Width: 500
Flags: MW
LayerCount: 2
Back
Fore
SplineSet
23 245 m 0
 23 599 357 734 426 734 c 0
 439 734 444 723 444 716 c 0
 444 686 389 713 290 616 c 0
 200 528 170 430 170 395 c 0
 170 389 170 384 173 384 c 0
 182 384 207 459 305 459 c 0
 401 459 477 367 477 230 c 0
 477 82 380 -33 257 -33 c 0
 235 -33 182 -30 138 4 c 0
 93 39 23 111 23 245 c 0
148 236 m 0
 148 181 173 30 278 30 c 0
 342 30 372 105 372 186 c 0
 372 284 328 390 248 390 c 0
 214 390 161 353 153 305 c 0
 150 284 148 266 148 236 c 0
EndSplineSet
EndChar
StartChar: seven
Encoding: 55 55 23
Width: 500
Flags: MW
LayerCount: 2
Back
Fore
SplineSet
39 550 m 0
 39 597 58 649 64 695 c 0
 65 706 77 710 82 710 c 0
 119 710 120 704 266 704 c 2
 301 704 l 2
 401 704 411 707 431 707 c 0
 448 707 461 698 461 685 c 0
 461 534 287 226 287 58 c 0
 287 -27 303 -43 303 -61 c 0
 303 -86 230 -94 219 -94 c 0
 182 -94 150 -85 150 -6 c 0
 150 149 308 371 355 491 c 0
 371 533 381 566 381 581 c 0
 381 585 373 594 360 594 c 0
 355 594 348 595 341 595 c 0
 329 595 268 593 220 593 c 0
 202 593 204 594 190 594 c 0
 113 594 98 568 87 535 c 0
 81 521 72 501 58 501 c 0
 44 501 39 522 39 550 c 0
EndSplineSet
EndChar
StartChar: eight
Encoding: 56 56 24
Width: 500
Flags: MW
LayerCount: 2
Back
Fore
SplineSet
25 177 m 0
 25 328 169 357 169 363 c 0
 169 373 72 413 72 529 c 0
 72 652 163 720 262 720 c 0
 403 720 438 623 438 555 c 0
 438 412 322 412 322 404 c 0
 322 391 475 347 475 192 c 0
 475 107 429 -31 246 -31 c 0
 125 -31 25 40 25 177 c 0
111 205 m 0
 111 91 189 28 261 28 c 0
 322 28 377 76 377 148 c 0
 377 186 346 233 324 252 c 0
 271 299 218 335 201 335 c 0
 169 335 111 279 111 205 c 0
168 570 m 0
 168 495 267 434 281 434 c 0
 309 434 351 466 351 546 c 0
 351 584 329 661 258 661 c 0
 220 661 168 658 168 570 c 0
EndSplineSet
EndChar
StartChar: nine
Encoding: 57 57 25
Width: 500
Flags: MW
LayerCount: 2
Back
Fore
SplineSet
21 462 m 0
 21 598 108 721 245 721 c 0
 384 721 479 596 479 445 c 0
 479 313 417 152 288 55 c 0
 207 -7 115 -37 72 -37 c 0
 56 -37 56 -25 56 -17 c 0
 56 -11 55 1 69 6 c 0
 122 18 190 62 247 128 c 0
 293 181 328 272 328 291 c 0
 328 296 327 297 325 297 c 0
 316 297 274 227 207 227 c 0
 83 227 21 343 21 462 c 0
132 512 m 0
 132 415 179 301 248 301 c 0
 322 301 350 373 350 453 c 0
 350 540 306 653 228 653 c 0
 161 653 132 587 132 512 c 0
EndSplineSet
EndChar
StartChar: colon
Encoding: 58 58 26
Width: 500
Flags: MW
LayerCount: 2
Back
Fore
SplineSet
142 55 m 0
 142 64 172 80 196 94 c 0
 216 106 229 127 258 127 c 0
 270 127 288 109 312 90 c 0
 326 80 358 65 358 55 c 0
 358 43 327 33 304 19 c 0
 286 7 271 -16 250 -16 c 0
 226 -16 208 11 188 21 c 0
 162 33 142 45 142 55 c 0
154 336 m 0
 154 345 176 360 198 373 c 0
 218 384 229 406 256 406 c 0
 268 406 295 382 310 369 c 0
 322 359 348 349 348 335 c 0
 348 324 325 314 304 301 c 0
 286 290 274 268 250 268 c 0
 226 268 212 294 198 303 c 0
 177 317 154 327 154 336 c 0
EndSplineSet
EndChar
StartChar: semicolon
Encoding: 59 59 27
Width: 500
Flags: MW
LayerCount: 2
Back
Fore
SplineSet
142 341 m 0
 142 355 166 377 188 397 c 0
 208 414 212 448 244 448 c 0
 256 448 285 411 300 391 c 0
 312 376 342 359 342 338 c 0
 342 321 319 307 298 287 c 0
 280 270 264 237 240 237 c 0
 216 237 202 277 188 291 c 0
 167 312 142 327 142 341 c 0
144 18 m 0
 144 32 170 42 192 57 c 0
 210 69 220 89 254 89 c 0
 261 89 358 51 358 -36 c 0
 358 -130 220 -204 180 -204 c 0
 174 -204 162 -197 162 -189 c 0
 162 -168 254 -153 254 -84 c 0
 254 -46 220 -27 172 -3 c 0
 147 9 144 8 144 18 c 0
EndSplineSet
EndChar
StartChar: less
Encoding: 60 60 28
Width: 500
Flags: MW
LayerCount: 2
Back
Fore
SplineSet
27 211 m 0
 27 222 27 226 42 232 c 0
 449 389 448 391 454 391 c 0
 463 391 473 385 473 353 c 0
 473 339 465 332 457 329 c 2
 152 226 l 2
 133 220 110 212 110 207 c 0
 110 202 132 196 152 190 c 2
 462 87 l 2
 468 84 473 78 473 67 c 0
 473 55 467 31 449 31 c 0
 443 31 446 31 41 187 c 0
 27 192 27 196 27 211 c 0
EndSplineSet
EndChar
StartChar: equal
Encoding: 61 61 29
Width: 500
Flags: MW
LayerCount: 2
Back
Fore
SplineSet
18 114 m 0
 18 134 18 146 36 146 c 2
 467 146 l 2
 483 146 483 135 483 114 c 0
 483 88 483 78 462 78 c 2
 35 78 l 2
 8 78 18 88 18 114 c 0
18 311 m 0
 18 331 18 341 36 341 c 2
 467 341 l 2
 483 341 483 330 483 309 c 0
 483 283 483 274 462 274 c 2
 35 274 l 2
 8 274 18 285 18 311 c 0
EndSplineSet
EndChar
StartChar: greater
Encoding: 62 62 30
Width: 500
Flags: MW
LayerCount: 2
Back
Fore
SplineSet
27 67 m 0
 27 78 31 84 37 87 c 2
 348 190 l 2
 368 196 390 202 390 207 c 0
 390 212 367 220 348 226 c 2
 42 329 l 2
 34 332 27 339 27 353 c 0
 27 385 36 391 45 391 c 0
 51 391 50 389 457 232 c 0
 472 226 473 222 473 211 c 0
 473 196 472 192 458 187 c 0
 53 31 56 31 50 31 c 0
 32 31 27 55 27 67 c 0
EndSplineSet
EndChar
StartChar: question
Encoding: 63 63 31
Width: 500
Flags: MW
LayerCount: 2
Back
Fore
SplineSet
101 605 m 0
 101 630 157 684 231 684 c 0
 314 684 399 647 399 574 c 0
 399 480 217 380 217 278 c 0
 217 260 224 244 224 234 c 0
 224 228 221 224 212 224 c 0
 179 224 164 276 164 296 c 0
 164 360 274 487 274 544 c 0
 274 597 200 616 172 616 c 0
 139 616 120 593 111 593 c 0
 104 593 101 601 101 605 c 0
123 57 m 0
 123 71 148 99 165 119 c 0
 180 137 194 167 210 167 c 0
 222 167 246 120 251 114 c 0
 256 108 291 77 291 62 c 0
 291 36 264 25 251 8 c 0
 237 -10 223 -45 208 -45 c 0
 198 -45 173 -15 161 5 c 0
 151 23 123 36 123 57 c 0
EndSplineSet
EndChar
StartChar: at
Encoding: 64 64 32
Width: 500
Flags: MW
LayerCount: 2
Back
Fore
SplineSet
10 284 m 0
 10 632 206 707 284 707 c 0
 408 707 490 562 490 389 c 0
 490 235 423 116 350 116 c 0
 210 116 304 218 298 218 c 0
 292 218 257 91 202 91 c 0
 162 91 146 135 146 195 c 0
 146 316 211 496 286 496 c 0
 305 496 324 482 330 482 c 0
 339 482 343 524 356 524 c 0
 361 524 360 514 360 505 c 0
 360 492 342 329 342 256 c 2
 342 243 l 2
 342 214 346 185 358 185 c 0
 396 185 428 254 428 398 c 0
 428 562 363 648 286 648 c 0
 184 648 100 510 100 297 c 0
 100 114 168 -18 270 -18 c 0
 347 -18 381 33 388 33 c 0
 391 33 394 30 394 21 c 0
 394 2 333 -75 238 -75 c 0
 107 -75 10 55 10 284 c 0
246 231 m 0
 246 191 256 175 270 175 c 0
 287 175 305 209 308 220 c 0
 312 235 314 242 318 282 c 0
 324 332 334 424 334 427 c 0
 334 435 318 446 308 446 c 0
 286 446 246 368 246 231 c 0
EndSplineSet
EndChar
StartChar: A
Encoding: 65 65 33
Width: 500
Flags: MW
LayerCount: 2
Back
Fore
SplineSet
5 13 m 0
 5 28 8 37 14 41 c 0
 51 63 47 82 235 701 c 0
 241 721 244 724 254 724 c 0
 267 724 259 722 300 563 c 0
 330 447 421 121 425 104 c 0
 448 0 495 49 495 13 c 0
 495 8 494 -2 480 -2 c 0
 467 -2 407 4 391 4 c 0
 371 4 334 0 316 0 c 0
 289 0 286 1 286 11 c 0
 286 29 308 19 308 49 c 0
 308 75 287 172 278 202 c 0
 276 208 275 215 260 215 c 0
 251 215 234 212 205 212 c 2
 181 212 l 2
 153 212 141 208 135 189 c 0
 119 128 106 86 106 64 c 0
 106 0 140 36 140 11 c 0
 140 5 137 -1 118 -1 c 0
 99 -1 118 0 79 0 c 0
 36 0 61 -5 37 -5 c 0
 17 -5 5 -2 5 13 c 0
164 294 m 0
 164 283 171 282 190 282 c 2
 205 282 l 2
 225 282 248 284 248 284 c 2
 259 285 259 286 259 293 c 0
 259 300 221 454 212 454 c 0
 206 454 164 301 164 294 c 0
EndSplineSet
EndChar
StartChar: B
Encoding: 66 66 34
Width: 500
Flags: MW
LayerCount: 2
Back
Fore
SplineSet
11 686 m 0
 11 695 13 709 18 709 c 0
 26 709 26 708 50 708 c 0
 79 708 151 709 165 709 c 0
 199 709 224 714 252 714 c 0
 342 714 420 657 420 545 c 0
 420 439 292 402 292 396 c 0
 292 384 489 378 489 206 c 0
 489 149 455 72 415 41 c 0
 361 -2 347 -11 287 -11 c 0
 226 -11 151 5 129 5 c 0
 108 5 83 -1 53 -1 c 2
 41 -1 l 2
 32 -1 23 2 23 22 c 0
 23 28 23 43 28 43 c 0
 34 43 35 44 39 44 c 0
 46 44 59 60 61 133 c 0
 65 195 66 324 66 431 c 2
 66 594 l 2
 66 603 63 668 20 668 c 0
 17 668 11 668 11 686 c 0
180 104 m 0
 180 51 221 49 243 49 c 2
 258 49 l 2
 277 49 297 49 314 54 c 0
 346 63 351 119 351 189 c 0
 351 347 278 354 257 354 c 0
 163 354 204 357 198 357 c 0
 185 357 181 356 181 208 c 2
 181 200 l 2
 181 123 180 113 180 104 c 0
189 540 m 2
 189 419 190 409 195 408 c 0
 204 406 205 405 218 405 c 2
 246 405 l 2
 286 405 301 454 301 513 c 0
 301 568 276 660 212 660 c 0
 194 660 189 649 189 566 c 2
 189 540 l 2
EndSplineSet
EndChar
StartChar: C
Encoding: 67 67 35
Width: 500
Flags: MW
LayerCount: 2
Back
Fore
SplineSet
30 321 m 0
 30 540 113 724 271 724 c 0
 359 724 403 654 409 654 c 0
 413 654 447 684 452 684 c 0
 456 684 461 679 461 668 c 0
 462 604 468 501 468 489 c 0
 468 474 464 472 462 472 c 0
 459 472 456 478 454 485 c 0
 425 590 373 661 308 661 c 0
 226 661 165 549 165 382 c 0
 165 207 209 38 331 38 c 0
 393 38 441 123 458 183 c 0
 460 190 462 189 466 189 c 0
 469 189 470 182 470 174 c 0
 470 148 468 95 466 72 c 0
 465 62 454 51 449 47 c 0
 394 1 350 -33 284 -33 c 0
 92 -33 30 159 30 321 c 0
EndSplineSet
EndChar
StartChar: D
Encoding: 68 68 36
Width: 500
Flags: MW
LayerCount: 2
Back
Fore
SplineSet
12 702 m 0
 12 720 16 721 44 721 c 2
 102 721 l 2
 137 721 185 727 230 727 c 0
 348 727 488 613 488 391 c 0
 488 191 449 128 392 54 c 0
 370 26 316 -14 258 -14 c 0
 242 -14 148 -7 100 -7 c 0
 60 -7 47 -14 34 -14 c 0
 20 -14 18 -6 18 6 c 0
 18 33 24 30 32 42 c 0
 40 51 48 80 48 105 c 0
 48 208 50 284 50 367 c 0
 50 446 48 497 48 613 c 0
 48 634 39 663 28 665 c 0
 20 667 12 667 12 702 c 0
174 146 m 0
 174 63 178 75 210 53 c 0
 218 47 230 43 240 43 c 2
 248 43 l 2
 285 43 307 68 330 121 c 0
 352 173 360 269 360 344 c 0
 360 561 286 660 226 660 c 0
 179 660 180 659 180 537 c 0
 180 499 176 370 176 352 c 0
 176 251 174 187 174 146 c 0
EndSplineSet
EndChar
StartChar: E
Encoding: 69 69 37
Width: 500
Flags: MW
LayerCount: 2
Back
Fore
SplineSet
-5 707 m 0
 -5 725 14 728 21 728 c 0
 28 728 37 725 46 725 c 0
 68 725 180 717 271 717 c 0
 308 717 427 724 455 724 c 0
 461 724 472 721 472 698 c 0
 472 676 464 640 464 584 c 0
 464 571 452 560 440 560 c 0
 428 560 417 566 417 579 c 0
 417 611 398 643 371 645 c 0
 321 650 306 651 264 651 c 2
 244 651 l 2
 190 651 190 650 188 595 c 0
 186 562 184 485 184 443 c 0
 184 427 184 397 197 396 c 2
 216 396 l 1
 246 396 l 1
 268 396 l 2
 330 396 339 401 352 413 c 0
 364 424 367 437 368 447 c 0
 371 456 374 463 389 463 c 0
 407 463 409 459 409 446 c 0
 409 427 396 372 396 335 c 0
 396 299 401 291 401 271 c 0
 401 246 395 245 390 245 c 0
 372 245 363 254 357 267 c 0
 353 283 350 303 340 312 c 0
 325 325 276 324 273 324 c 0
 212 324 219 326 211 326 c 0
 196 326 182 324 182 309 c 0
 182 257 179 228 179 176 c 2
 179 139 l 2
 179 109 185 71 199 66 c 0
 217 60 223 59 235 59 c 0
 481 59 471 146 495 146 c 0
 500 146 505 141 505 127 c 0
 505 59 434 -21 398 -21 c 0
 281 -21 203 -7 148 -7 c 0
 98 -7 68 -20 24 -20 c 0
 15 -20 5 -21 5 -5 c 0
 5 35 6 11 35 41 c 0
 57 56 62 81 62 233 c 2
 62 357 l 2
 62 412 66 466 66 528 c 0
 66 557 66 586 64 618 c 0
 63 660 33 679 6 680 c 0
 -5 680 -5 693 -5 707 c 0
EndSplineSet
EndChar
StartChar: F
Encoding: 70 70 38
Width: 500
Flags: MW
LayerCount: 2
Back
Fore
SplineSet
6 692 m 0
 6 696 9 717 31 717 c 2
 56 717 l 2
 122 717 119 708 263 708 c 0
 389 708 383 716 478 716 c 0
 485 716 494 713 494 690 c 0
 494 668 482 634 473 579 c 0
 471 566 462 558 450 558 c 0
 438 558 429 563 429 576 c 0
 429 607 419 635 392 637 c 0
 322 643 278 648 250 648 c 0
 201 648 198 633 197 591 c 0
 194 559 193 483 193 442 c 0
 193 426 193 398 207 397 c 0
 214 397 220 396 225 396 c 0
 236 396 246 397 258 397 c 2
 281 397 l 2
 346 397 354 401 368 413 c 0
 373 417 376 422 378 426 c 0
 393 444 382 461 405 461 c 0
 419 461 420 457 420 445 c 0
 420 426 407 395 407 359 c 0
 407 324 418 294 418 274 c 0
 418 249 409 248 397 248 c 0
 374 248 368 258 365 270 c 0
 363 286 363 306 350 313 c 0
 335 322 285 325 282 325 c 2
 220 325 l 2
 205 325 191 322 191 308 c 0
 191 257 189 229 189 179 c 0
 189 166 187 155 187 143 c 0
 187 120 193 50 245 50 c 0
 261 50 267 33 267 23 c 0
 267 16 262 -5 238 -5 c 0
 209 -5 170 7 146 7 c 0
 95 7 79 -2 33 -2 c 0
 23 -2 14 -2 14 14 c 0
 14 41 12 45 44 61 c 0
 75 77 70 137 71 360 c 0
 71 412 75 466 75 524 c 2
 75 579 l 2
 75 609 73 643 42 662 c 0
 27 678 6 660 6 692 c 0
EndSplineSet
EndChar
StartChar: G
Encoding: 71 71 39
Width: 500
Flags: MW
LayerCount: 2
Back
Fore
SplineSet
6 327 m 0
 6 546 82 729 260 729 c 0
 378 729 426 638 432 638 c 0
 437 638 446 652 452 652 c 0
 459 652 462 643 462 633 c 0
 464 571 476 515 476 504 c 0
 476 489 464 488 458 488 c 0
 449 488 437 492 432 499 c 0
 408 594 343 668 282 668 c 0
 198 668 146 566 146 381 c 0
 146 206 189 34 264 34 c 0
 306 34 328 86 332 142 c 0
 333 150 334 220 334 259 c 0
 334 286 332 303 328 312 c 0
 323 323 316 325 310 327 c 0
 302 330 294 330 294 361 c 0
 294 370 298 378 310 378 c 0
 331 378 381 370 402 370 c 0
 440 370 477 372 480 372 c 0
 483 372 494 371 494 363 c 0
 494 346 463 346 460 315 c 0
 457 283 456 242 456 197 c 0
 456 104 464 91 464 80 c 0
 464 67 444 71 420 51 c 0
 411 44 356 -29 280 -29 c 0
 73 -29 6 151 6 327 c 0
EndSplineSet
EndChar
StartChar: H
Encoding: 72 72 40
Width: 500
Flags: MW
LayerCount: 2
Back
Fore
SplineSet
-0 696 m 0
 0 712 10 712 20 712 c 0
 41 712 64 706 106 706 c 0
 138 706 126 709 174 709 c 0
 179 709 190 708 190 688 c 0
 190 674 189 662 176 662 c 0
 163 662 160 583 160 547 c 2
 160 512 l 2
 160 472 158 446 158 427 c 0
 158 395 159 391 172 391 c 0
 187 391 180 392 246 392 c 0
 256 392 272 392 330 390 c 0
 334 390 336 396 336 526 c 2
 336 579 l 2
 336 706 298 658 298 696 c 0
 298 704 311 706 330 706 c 0
 349 706 376 703 408 703 c 0
 427 703 443 706 472 706 c 0
 480 706 490 701 490 686 c 0
 490 666 486 667 484 667 c 0
 467 667 458 641 458 607 c 0
 456 515 454 446 454 373 c 0
 454 327 452 281 452 229 c 2
 452 193 l 2
 452 141 458 131 458 104 c 0
 458 47 484 36 496 33 c 0
 497 33 500 31 500 16 c 0
 500 1 490 0 462 0 c 0
 444 0 425 8 402 8 c 0
 372 8 365 0 328 0 c 0
 308 0 300 0 300 12 c 0
 300 30 325 26 328 62 c 0
 330 87 330 111 330 132 c 0
 330 151 332 169 332 184 c 0
 332 219 336 259 336 302 c 0
 336 319 333 328 308 328 c 0
 296 328 257 324 254 324 c 0
 217 324 200 328 172 328 c 0
 164 328 162 326 162 294 c 0
 162 250 156 218 156 183 c 2
 156 144 l 2
 156 98 156 74 176 49 c 0
 178 46 187 44 196 44 c 0
 201 44 204 35 204 27 c 0
 204 3 194 0 182 0 c 0
 142 0 145 6 120 6 c 0
 82 6 67 -2 40 -2 c 0
 10 -2 6 5 6 13 c 0
 6 40 29 -2 38 76 c 0
 40 92 44 223 44 339 c 2
 44 395 l 2
 44 424 46 461 46 501 c 0
 46 541 44 583 42 618 c 0
 40 653 21 670 8 670 c 0
 1 670 0 692 -0 696 c 0
EndSplineSet
EndChar
StartChar: I
Encoding: 73 73 41
Width: 500
Flags: MW
LayerCount: 2
Back
Fore
SplineSet
86 688 m 0
 86 698 90 710 118 710 c 0
 150 710 184 704 248 704 c 0
 297 704 278 707 350 707 c 0
 358 707 380 705 380 686 c 0
 380 673 364 664 336 646 c 0
 309 636 304 574 304 537 c 0
 304 315 300 275 300 188 c 0
 300 130 305 100 324 74 c 0
 345 47 362 45 372 45 c 0
 375 45 389 44 392 44 c 0
 402 44 414 35 414 27 c 0
 414 3 405 0 386 0 c 0
 325 0 314 6 276 6 c 0
 217 6 193 -2 152 -2 c 0
 105 -2 100 5 100 13 c 0
 100 39 151 -2 174 76 c 0
 176 84 186 270 186 337 c 2
 186 393 l 2
 186 421 186 459 186 499 c 2
 186 544 l 2
 186 569 185 593 182 615 c 0
 177 650 136 664 108 665 c 0
 88 667 86 680 86 688 c 0
EndSplineSet
EndChar
StartChar: J
Encoding: 74 74 42
Width: 500
Flags: MW
LayerCount: 2
Back
Fore
SplineSet
34 -158 m 0
 34 -132 54 -85 65 -85 c 0
 82 -85 86 -118 123 -118 c 0
 163 -118 184 -86 192 -42 c 0
 201 4 205 43 205 75 c 0
 205 98 204 192 204 194 c 0
 204 260 199 12 199 525 c 0
 199 561 199 596 196 621 c 0
 192 655 149 667 121 668 c 0
 101 670 99 688 99 696 c 0
 99 710 105 722 133 722 c 0
 165 722 199 714 264 714 c 0
 314 714 285 715 358 715 c 0
 366 715 390 715 390 696 c 0
 390 683 373 672 344 654 c 0
 325 647 323 617 323 586 c 2
 323 540 l 2
 323 54 320 102 320 54 c 0
 320 -103 205 -208 80 -208 c 0
 63 -208 34 -206 34 -158 c 0
EndSplineSet
EndChar
StartChar: K
Encoding: 75 75 43
Width: 500
Flags: MW
LayerCount: 2
Back
Fore
SplineSet
6 688 m 0
 6 698 8 708 25 708 c 0
 44 708 65 705 103 705 c 0
 132 705 115 708 162 708 c 0
 167 708 174 706 174 688 c 0
 174 673 168 671 164 657 c 0
 157 643 155 581 155 546 c 0
 155 464 151 424 151 405 c 0
 151 389 152 386 154 386 c 0
 157 386 302 601 302 645 c 0
 302 665 292 666 287 670 c 0
 284 673 284 688 284 692 c 0
 284 708 294 708 303 708 c 0
 310 708 320 706 333 706 c 0
 343 706 374 704 405 704 c 0
 410 704 476 708 476 708 c 2
 493 709 500 705 500 695 c 0
 500 679 482 677 449 667 c 0
 436 663 419 661 399 647 c 0
 383 636 396 630 246 412 c 0
 240 404 240 398 240 398 c 2
 240 392 243 388 246 383 c 0
 421 90 419 63 471 49 c 0
 489 44 500 43 500 22 c 0
 500 4 498 3 457 2 c 2
 347 0 l 2
 328 0 311 2 271 86 c 0
 179 280 176 309 164 309 c 0
 155 309 153 296 153 285 c 0
 153 283 155 266 155 216 c 0
 155 161 155 99 159 75 c 0
 164 47 176 46 179 46 c 0
 180 46 180 44 181 44 c 0
 184 44 187 36 187 28 c 0
 187 4 181 0 167 0 c 0
 124 0 118 6 92 6 c 0
 60 6 46 -1 24 -1 c 0
 14 -1 13 7 13 16 c 2
 13 22 l 2
 13 46 24 34 30 64 c 0
 36 84 36 164 36 277 c 2
 36 404 l 2
 36 431 33 467 33 506 c 2
 33 549 l 2
 33 574 33 597 32 618 c 0
 31 651 20 665 12 666 c 0
 6 668 6 680 6 688 c 0
EndSplineSet
EndChar
StartChar: L
Encoding: 76 76 44
Width: 500
Flags: MW
LayerCount: 2
Back
Fore
SplineSet
18 692 m 0
 18 715 38 721 45 721 c 0
 52 721 60 718 70 718 c 0
 93 718 116 712 155 712 c 0
 207 712 239 718 256 718 c 0
 268 718 272 716 272 708 c 0
 272 665 218 728 215 601 c 0
 213 539 202 196 202 185 c 2
 202 145 l 2
 202 112 207 72 219 67 c 0
 235 60 239 59 250 59 c 0
 504 59 452 151 473 151 c 0
 477 151 482 145 482 131 c 0
 482 61 418 -22 385 -22 c 0
 279 -22 207 -8 156 -8 c 0
 111 -8 94 -20 53 -20 c 0
 36 -20 29 -12 29 -2 c 0
 29 14 37 22 41 22 c 0
 44 22 51 22 61 32 c 0
 77 49 85 75 85 226 c 2
 85 348 l 2
 85 402 90 459 90 520 c 0
 90 549 88 578 86 610 c 0
 85 652 57 670 29 671 c 0
 19 671 18 680 18 692 c 0
EndSplineSet
EndChar
StartChar: M
Encoding: 77 77 45
Width: 500
Flags: MW
LayerCount: 2
Back
Fore
SplineSet
0 698 m 0
 0 708 1 720 10 720 c 0
 16 720 37 714 42 714 c 0
 58 714 129 717 140 717 c 0
 147 717 150 711 152 703 c 0
 206 497 242 327 250 327 c 0
 256 327 263 361 268 383 c 2
 314 561 l 2
 340 665 330 681 334 693 c 0
 338 706 336 720 356 720 c 0
 381 720 440 717 476 717 c 0
 480 717 486 717 486 697 c 0
 486 678 482 668 468 662 c 0
 453 658 446 641 446 556 c 0
 446 471 456 228 456 185 c 0
 456 51 466 34 492 34 c 0
 496 34 500 21 500 13 c 0
 500 -12 495 -12 482 -12 c 0
 440 -12 428 -6 402 -6 c 0
 362 -6 352 -13 324 -13 c 0
 311 -13 310 -5 310 1 c 0
 310 30 336 -1 342 66 c 0
 343 76 344 100 344 130 c 0
 344 205 336 385 336 388 c 0
 336 416 334 431 332 431 c 0
 328 431 320 405 312 369 c 2
 256 165 l 2
 215 18 221 12 216 12 c 0
 208 12 207 46 196 104 c 0
 122 482 109 483 106 483 c 0
 104 483 102 473 102 444 c 0
 99 302 102 262 102 188 c 2
 102 144 l 2
 102 92 102 41 142 33 c 0
 144 33 148 24 148 16 c 0
 148 -9 145 -12 138 -12 c 0
 117 -12 83 -6 74 -6 c 0
 67 -6 49 -11 22 -11 c 0
 14 -11 10 -9 10 6 c 0
 10 33 37 -1 40 82 c 0
 41 113 48 391 48 483 c 0
 48 612 42 654 6 675 c 0
 1 679 0 690 0 698 c 0
EndSplineSet
EndChar
StartChar: O
Encoding: 79 79 47
Width: 500
Flags: MW
LayerCount: 2
Back
Fore
SplineSet
4 337 m 0
 4 558 88 732 252 732 c 0
 447 732 496 497 496 392 c 0
 496 103 385 -29 244 -29 c 0
 84 -29 4 152 4 337 c 0
142 388 m 4
 142 265 172 39 262 39 c 0
 306 39 360 124 360 302 c 0
 360 546 312 670 242 670 c 0
 188 670 142 585 142 388 c 4
EndSplineSet
EndChar
StartChar: P
Encoding: 80 80 48
Width: 500
Flags: MW
LayerCount: 2
Back
Fore
SplineSet
4 696 m 0
 4 708 10 720 26 720 c 0
 36 720 33 721 62 721 c 0
 73 721 102 716 119 716 c 0
 160 716 242 721 276 721 c 0
 385 721 496 661 496 529 c 0
 496 348 344 310 296 310 c 0
 257 310 206 328 206 343 c 0
 206 358 210 365 215 365 c 0
 225 365 233 357 251 357 c 0
 289 357 368 384 368 489 c 0
 368 562 322 659 227 659 c 0
 200 659 190 647 190 557 c 0
 190 162 187 456 187 144 c 0
 187 75 200 44 216 29 c 0
 241 7 274 50 274 -2 c 0
 274 -16 263 -19 253 -19 c 0
 217 -19 136 -12 122 -12 c 0
 99 -12 76 -18 36 -18 c 0
 26 -18 8 -18 8 -1 c 0
 8 35 19 35 35 44 c 0
 45 48 48 17 59 87 c 0
 66 115 70 373 70 432 c 0
 70 535 68 573 68 598 c 0
 68 621 59 676 18 676 c 0
 10 676 4 681 4 696 c 0
EndSplineSet
EndChar
StartChar: Q
Encoding: 81 81 49
Width: 500
Flags: MW
LayerCount: 2
Back
Fore
SplineSet
14 349 m 0
 14 560 80 732 254 732 c 0
 435 732 478 488 478 380 c 0
 478 243 425 73 330 36 c 0
 288 19 281 17 281 13 c 0
 281 7 284 -1 291 -6 c 0
 336 -42 417 -110 463 -110 c 0
 500 -110 500 -82 516 -82 c 0
 519 -82 522 -94 522 -98 c 0
 522 -160 483 -213 445 -213 c 0
 380 -213 248 4 214 4 c 0
 184 4 174 -48 174 -90 c 2
 174 -106 l 2
 174 -119 170 -130 148 -130 c 0
 128 -130 112 -109 112 -88 c 0
 112 -24 136 -11 145 0 c 0
 152 9 155 14 155 18 c 0
 155 21 145 29 131 37 c 0
 33 98 14 244 14 349 c 0
161 385 m 0
 161 307 161 235 179 168 c 0
 199 92 240 67 264 67 c 0
 284 67 301 79 314 97 c 0
 329 119 349 178 349 298 c 0
 349 508 308 670 246 670 c 0
 199 670 161 584 161 385 c 0
EndSplineSet
EndChar
StartChar: R
Encoding: 82 82 50
Width: 500
Flags: MW
LayerCount: 2
Back
Fore
SplineSet
10 706 m 0
 10 719 17 722 34 722 c 2
 173 722 l 2
 209 722 227 726 256 726 c 0
 351 726 446 665 446 558 c 0
 446 386 334 360 334 344 c 0
 334 328 401 128 426 85 c 0
 429 79 446 38 488 38 c 0
 493 38 500 32 500 20 c 0
 500 -6 499 -19 450 -19 c 0
 448 -19 354 -9 330 12 c 0
 294 43 262 150 242 233 c 0
 225 304 221 322 213 322 c 2
 206 322 l 1
 195 322 l 2
 185 322 184 322 184 251 c 0
 184 110 185 124 185 110 c 0
 185 -1 246 31 246 -2 c 0
 246 -12 243 -17 232 -17 c 0
 229 -17 128 -7 120 -7 c 0
 82 -7 42 -13 33 -13 c 0
 25 -13 16 -10 16 3 c 0
 16 39 57 -1 57 107 c 0
 57 173 59 317 59 431 c 0
 59 539 57 576 57 604 c 0
 57 724 10 674 10 706 c 0
184 534 m 2
 184 412 184 394 188 389 c 0
 194 382 200 381 210 381 c 2
 214 381 l 1
 229 381 l 2
 290 381 308 445 308 511 c 0
 308 575 282 672 210 672 c 0
 184 672 184 644 184 560 c 2
 184 534 l 2
EndSplineSet
EndChar
StartChar: S
Encoding: 83 83 51
Width: 500
Flags: MW
LayerCount: 2
Back
Fore
SplineSet
23 190 m 0
 23 206 34 213 44 213 c 0
 53 213 65 209 68 203 c 0
 89 144 129 42 246 42 c 0
 328 42 381 100 381 185 c 0
 381 320 237 265 129 343 c 0
 81 377 53 468 53 536 c 0
 53 655 139 732 260 732 c 0
 317 732 376 681 389 681 c 0
 395 681 403 693 409 693 c 0
 415 693 421 690 422 685 c 0
 429 638 441 561 441 547 c 0
 441 526 433 518 426 518 c 0
 417 518 413 523 410 532 c 0
 391 591 382 598 360 623 c 0
 332 655 296 669 261 669 c 0
 201 669 149 628 149 558 c 0
 149 398 342 488 444 356 c 0
 464 330 477 248 477 202 c 0
 477 58 377 -26 256 -26 c 0
 176 -26 129 -21 70 15 c 0
 50 28 23 180 23 190 c 0
EndSplineSet
EndChar
StartChar: T
Encoding: 84 84 52
Width: 500
Flags: MW
LayerCount: 2
Back
Fore
SplineSet
17 570 m 0
 17 604 22 662 24 691 c 0
 26 717 24 732 45 732 c 0
 92 732 100 719 251 719 c 0
 352 719 425 724 461 728 c 0
 462 728 465 729 466 729 c 0
 478 729 479 713 479 709 c 0
 479 695 483 621 483 611 c 0
 483 569 479 566 459 566 c 0
 456 566 447 567 442 578 c 0
 436 623 433 641 391 641 c 2
 327 641 l 2
 311 641 309 637 309 577 c 2
 309 529 l 2
 309 298 305 256 305 166 c 0
 305 140 303 119 303 101 c 0
 303 74 304 57 310 45 c 0
 331 8 356 27 356 1 c 0
 356 -15 351 -16 337 -16 c 0
 316 -16 274 -4 248 -4 c 0
 227 -4 193 -15 167 -15 c 0
 150 -15 137 -8 137 10 c 0
 137 43 151 37 163 46 c 0
 172 50 179 58 181 84 c 0
 187 151 189 406 189 446 c 0
 189 548 187 618 187 618 c 2
 187 642 186 645 150 645 c 0
 76 645 67 635 62 621 c 0
 42 586 44 550 25 550 c 0
 21 550 17 554 17 570 c 0
EndSplineSet
EndChar
StartChar: U
Encoding: 85 85 53
Width: 500
Flags: MW
LayerCount: 2
Back
Fore
SplineSet
6 702 m 0
 6 712 7 721 26 721 c 0
 49 721 70 715 116 715 c 0
 154 715 131 718 192 718 c 0
 200 718 210 717 210 704 c 0
 210 670 178 717 178 590 c 2
 178 562 l 2
 178 475 178 406 178 347 c 0
 178 210 178 40 282 40 c 0
 332 40 398 41 398 326 c 0
 398 490 396 490 396 531 c 0
 396 583 397 637 382 660 c 0
 371 686 354 670 354 694 c 0
 354 706 357 718 368 718 c 0
 376 718 413 715 420 715 c 0
 449 715 467 720 480 720 c 0
 494 720 494 711 494 706 c 0
 494 689 477 684 472 662 c 0
 468 644 466 632 466 594 c 0
 466 576 468 555 468 524 c 0
 468 129 441 44 358 -10 c 0
 334 -25 285 -33 262 -33 c 0
 180 -33 136 -13 104 32 c 0
 50 106 48 198 48 405 c 2
 48 422 l 2
 48 492 52 537 52 568 c 0
 52 638 48 662 16 672 c 0
 6 676 6 694 6 702 c 0
EndSplineSet
EndChar
StartChar: V
Encoding: 86 86 54
Width: 500
Flags: MW
LayerCount: 2
Back
Fore
SplineSet
9 696 m 0
 9 709 20 710 27 710 c 0
 41 710 122 706 164 706 c 0
 175 706 192 708 205 708 c 0
 224 708 226 707 226 697 c 0
 226 682 208 683 208 650 c 0
 208 608 210 597 271 374 c 0
 291 301 304 266 310 266 c 0
 314 266 404 596 404 649 c 0
 404 696 372 676 372 700 c 0
 372 709 375 710 395 710 c 0
 408 710 390 709 428 709 c 0
 469 709 434 711 487 711 c 0
 499 711 508 709 508 697 c 0
 508 675 484 687 466 625 c 2
 321 117 l 2
 279 -29 284 -30 277 -30 c 0
 273 -30 263 -24 247 39 c 0
 226 118 209 173 180 271 c 0
 88 579 83 604 69 643 c 0
 50 697 9 661 9 696 c 0
EndSplineSet
EndChar
StartChar: W
Encoding: 87 87 55
Width: 500
Flags: MW
LayerCount: 2
Back
Fore
SplineSet
3 702 m 0
 3 715 9 716 15 716 c 0
 25 716 77 712 108 712 c 0
 130 712 148 716 154 716 c 0
 160 716 161 713 161 704 c 0
 161 688 152 690 152 656 c 0
 152 624 158 603 203 351 c 0
 217 273 220 242 224 242 c 0
 226 242 230 248 245 304 c 0
 252 330 253 333 253 352 c 0
 253 365 212 594 201 628 c 0
 190 661 187 670 180 672 c 0
 168 676 166 683 166 697 c 0
 166 717 176 718 182 718 c 0
 194 718 198 712 232 712 c 0
 237 712 281 718 294 718 c 0
 302 718 310 715 310 709 c 0
 310 693 297 696 297 661 c 0
 297 638 301 634 308 588 c 0
 311 567 313 558 316 558 c 0
 321 558 345 636 345 657 c 0
 345 702 334 686 334 708 c 0
 334 718 337 720 342 720 c 0
 347 720 360 716 366 716 c 2
 381 716 l 2
 386 716 391 719 400 722 c 2
 403 722 l 2
 405 722 408 720 408 712 c 0
 408 693 398 698 392 681 c 0
 388 672 385 655 379 634 c 0
 337 488 332 481 332 460 c 0
 332 455 360 265 364 265 c 0
 368 265 447 621 447 655 c 0
 447 703 437 683 437 708 c 0
 437 717 440 718 448 718 c 0
 455 718 458 716 471 716 c 0
 484 716 484 720 493 720 c 0
 504 720 514 717 514 705 c 0
 514 689 504 690 494 669 c 0
 486 652 483 635 475 596 c 0
 340 -34 343 -35 336 -35 c 0
 331 -35 320 21 313 54 c 0
 292 151 278 252 273 252 c 0
 266 252 200 13 199 5 c 0
 194 -24 190 -38 185 -38 c 0
 175 -38 163 67 118 269 c 0
 82 431 67 513 58 562 c 0
 31 716 3 655 3 702 c 0
EndSplineSet
EndChar
StartChar: X
Encoding: 88 88 56
Width: 500
Flags: MW
LayerCount: 2
Back
Fore
SplineSet
8 694 m 0
 8 711 11 714 43 714 c 0
 78 714 68 708 118 708 c 0
 127 708 199 711 206 711 c 0
 218 711 224 711 224 702 c 0
 224 674 211 696 211 663 c 0
 211 642 224 592 234 567 c 0
 260 504 276 463 280 463 c 0
 282 463 281 467 288 483 c 0
 314 543 351 632 351 655 c 0
 351 702 302 677 302 704 c 0
 302 712 303 714 308 714 c 0
 326 714 368 708 396 708 c 0
 472 708 471 714 484 714 c 0
 488 714 493 712 493 704 c 0
 493 683 462 692 430 663 c 0
 417 651 403 634 390 605 c 0
 353 525 312 403 312 399 c 0
 312 387 329 359 392 219 c 0
 414 171 456 88 469 61 c 0
 475 49 517 49 517 20 c 0
 517 8 516 -1 500 -1 c 0
 483 -1 410 9 401 9 c 0
 351 9 291 0 286 0 c 0
 283 0 280 2 280 13 c 0
 280 39 329 22 329 57 c 0
 329 81 314 97 255 236 c 0
 251 245 250 253 249 253 c 0
 247 253 239 244 234 229 c 0
 210 164 182 112 182 68 c 0
 182 59 199 42 214 42 c 0
 216 42 217 36 217 16 c 0
 217 1 207 0 189 0 c 0
 173 0 117 4 109 4 c 0
 93 4 68 -1 44 -1 c 0
 23 -1 10 0 10 18 c 0
 10 38 56 20 86 50 c 0
 125 89 151 139 180 216 c 0
 203 276 214 311 214 318 c 0
 214 327 187 393 112 537 c 0
 88 583 70 648 38 664 c 0
 28 669 8 668 8 694 c 0
EndSplineSet
EndChar
StartChar: Y
Encoding: 89 89 57
Width: 500
Flags: MW
LayerCount: 2
Back
Fore
SplineSet
8 679 m 0
 8 701 13 705 33 705 c 0
 38 705 49 702 56 702 c 0
 65 702 154 704 165 704 c 0
 179 704 185 698 185 691 c 0
 185 670 168 675 168 656 c 0
 168 626 195 580 208 552 c 0
 242 480 266 421 271 421 c 0
 281 421 298 452 322 495 c 0
 347 540 357 591 357 617 c 0
 357 643 350 651 343 655 c 0
 335 661 327 659 327 687 c 0
 327 702 338 705 358 705 c 0
 371 705 386 704 404 704 c 0
 433 704 448 702 468 702 c 0
 499 702 522 701 522 687 c 0
 522 677 501 678 481 661 c 0
 415 607 344 442 313 363 c 0
 308 350 309 310 309 259 c 0
 309 233 310 179 310 146 c 2
 310 123 l 2
 310 53 326 47 331 47 c 0
 332 47 338 46 339 46 c 0
 343 46 345 32 345 24 c 0
 345 4 341 -1 327 -1 c 0
 316 -1 274 1 250 1 c 0
 200 1 198 -5 166 -5 c 0
 149 -5 144 0 144 11 c 0
 144 43 152 33 160 42 c 0
 168 48 176 64 176 101 c 0
 176 125 179 117 179 294 c 0
 179 352 150 381 76 559 c 0
 38 650 30 659 18 659 c 0
 14 659 8 659 8 679 c 0
EndSplineSet
EndChar
StartChar: Z
Encoding: 90 90 58
Width: 500
Flags: MW
LayerCount: 2
Back
Fore
SplineSet
23 13 m 0
 23 26 48 55 85 133 c 0
 147 263 289 609 289 634 c 0
 289 644 274 645 254 645 c 0
 213 645 187 640 157 639 c 0
 81 637 64 542 50 542 c 0
 46 542 38 545 38 560 c 0
 38 599 45 615 45 633 c 0
 45 651 47 658 50 686 c 0
 51 705 57 710 75 710 c 0
 93 710 150 705 263 705 c 0
 366 705 343 706 420 706 c 0
 445 706 457 704 457 692 c 0
 457 668 205 106 205 86 c 4
 205 67 227 67 279 67 c 4
 362 67 395 69 435 96 c 4
 457 111 461 128 471 128 c 4
 472 128 477 127 477 115 c 4
 477 98 463 64 450 36 c 0
 440 15 439 0 414 0 c 0
 321 0 329 -1 255 -1 c 0
 138 -1 112 -2 41 -2 c 0
 31 -2 23 -1 23 13 c 0
EndSplineSet
EndChar
StartChar: bracketleft
Encoding: 91 91 59
Width: 500
Flags: MW
LayerCount: 2
Back
Fore
SplineSet
288 -91 m 2
 288 72 297 373 297 576 c 0
 297 679 296 730 296 747 c 0
 296 771 310 773 351 773 c 2
 400 773 l 2
 460 773 466 774 474 774 c 0
 484 774 492 760 492 743 c 0
 492 726 488 712 480 712 c 0
 461 712 397 711 388 711 c 2
 372 711 l 2
 367 711 364 711 364 703 c 0
 364 687 368 643 368 552 c 0
 368 399 360 168 360 22 c 0
 360 -19 360 -73 362 -122 c 0
 362 -134 364 -148 374 -148 c 0
 392 -148 455 -146 464 -146 c 0
 482 -146 488 -154 488 -180 c 0
 488 -213 473 -216 429 -216 c 2
 326 -216 l 2
 292 -216 288 -210 288 -154 c 2
 288 -91 l 2
EndSplineSet
EndChar
StartChar: backslash
Encoding: 92 92 130
Width: 500
Flags: MW
LayerCount: 2
Back
Fore
SplineSet
48 723 m 0
 48 733 68 735 78 735 c 0
 97 735 115 732 120 717 c 0
 122 710 432 -113 432 -113 c 2
 441 -136 452 -158 452 -167 c 0
 452 -183 420 -183 404 -183 c 0
 390 -183 382 -181 366 -152 c 2
 62 679 l 2
 57 692 48 714 48 723 c 0
EndSplineSet
EndChar
StartChar: asciicircum
Encoding: 94 94 62
Width: 500
Flags: MW
LayerCount: 2
Back
Fore
SplineSet
52 317 m 0
 52 322 65 336 71 342 c 0
 201 512 211 534 251 534 c 0
 293 534 302 511 431 342 c 0
 437 336 448 320 448 315 c 0
 448 308 435 307 421 307 c 2
 399 307 l 2
 373 307 365 325 353 340 c 0
 285 423 265 454 251 454 c 0
 236 454 217 423 149 340 c 0
 137 325 129 308 103 308 c 2
 82 308 l 2
 67 308 52 310 52 317 c 0
EndSplineSet
EndChar
StartChar: underscore
Encoding: 95 95 63
Width: 500
Flags: MW
LayerCount: 2
Back
Fore
SplineSet
0 -38 m 0
 0 -18 2 -6 29 -6 c 2
 476 -6 l 2
 500 -6 500 -17 500 -38 c 0
 500 -64 500 -74 468 -74 c 2
 27 -74 l 2
 0 -74 0 -64 0 -38 c 0
EndSplineSet
EndChar
StartChar: grave
Encoding: 96 96 64
Width: 500
Flags: MW
LayerCount: 2
Back
Fore
SplineSet
138 669 m 0
 138 701 212 708 218 708 c 0
 224 708 237 703 248 679 c 0
 326 491 362 472 362 451 c 0
 362 442 353 434 344 434 c 0
 332 434 308 457 285 481 c 0
 223 546 138 637 138 669 c 0
EndSplineSet
EndChar
StartChar: b
Encoding: 98 98 66
Width: 500
Flags: MW
LayerCount: 2
Back
Fore
SplineSet
2 703 m 0
 2 725 55 734 78 742 c 0
 102 751 142 770 154 770 c 0
 162 770 171 763 171 751 c 0
 171 712 170 798 170 400 c 0
 170 386 172 382 176 382 c 0
 190 382 191 456 323 456 c 0
 440 456 498 344 498 238 c 0
 498 182 468 73 404 24 c 0
 366 -5 317 -22 259 -22 c 0
 163 -22 115 55 108 55 c 0
 96 55 83 -28 57 -28 c 0
 46 -28 44 -24 44 -15 c 0
 44 10 48 64 48 70 c 0
 48 148 62 225 62 342 c 2
 62 598 l 2
 62 642 55 692 24 692 c 2
 15 692 l 2
 8 692 2 694 2 703 c 0
170 134 m 2
 170 112 205 34 286 34 c 0
 363 34 400 106 400 184 c 0
 400 275 350 373 259 373 c 0
 236 373 212 364 195 347 c 0
 172 325 170 314 170 303 c 2
 170 134 l 2
EndSplineSet
EndChar
StartChar: c
Encoding: 99 99 67
Width: 500
Flags: MW
LayerCount: 2
Back
Fore
SplineSet
36 189 m 0
 36 318 137 439 294 439 c 0
 339 439 422 423 424 402 c 0
 425 389 426 368 426 349 c 0
 426 323 422 300 414 300 c 0
 400 300 399 317 382 330 c 0
 359 349 301 379 248 379 c 0
 228 379 150 354 150 224 c 0
 150 129 223 44 320 44 c 0
 400 44 439 93 452 93 c 0
 458 93 464 86 464 80 c 0
 464 69 406 -35 264 -35 c 0
 128 -35 36 48 36 189 c 0
EndSplineSet
EndChar
StartChar: d
Encoding: 100 100 68
Width: 500
Flags: MW
LayerCount: 2
Back
Fore
SplineSet
-3 190 m 0
 -3 315 75 445 228 445 c 0
 271 445 322 415 335 415 c 0
 338 415 340 421 340 449 c 0
 340 568 343 535 343 568 c 0
 343 630 344 671 297 671 c 2
 288 671 l 2
 271 671 271 672 271 683 c 2
 271 685 l 2
 271 708 305 703 382 757 c 0
 399 762 419 772 436 772 c 0
 446 772 453 767 453 752 c 0
 453 731 442 618 442 534 c 0
 442 354 439 240 439 168 c 0
 439 77 445 56 468 47 c 0
 481 40 503 41 503 16 c 0
 503 9 499 -2 419 -11 c 0
 387 -14 363 -29 350 -29 c 0
 342 -29 338 -25 338 -14 c 0
 338 -1 334 14 334 39 c 0
 334 49 333 63 325 63 c 0
 314 63 276 -29 185 -29 c 0
 60 -29 -3 78 -3 190 c 0
105 242 m 0
 105 155 155 51 238 51 c 0
 284 51 333 109 333 152 c 0
 335 313 334 270 334 286 c 0
 334 338 323 350 312 358 c 0
 286 376 245 400 216 400 c 0
 145 400 105 330 105 242 c 0
EndSplineSet
EndChar
StartChar: e
Encoding: 101 101 69
Width: 500
Flags: MW
LayerCount: 2
Back
Fore
SplineSet
13 188 m 0
 13 324 112 438 261 438 c 0
 444 438 486 283 486 267 c 0
 486 252 471 248 439 248 c 2
 177 248 l 1
 143 248 l 2
 130 248 130 247 130 238 c 0
 130 119 229 57 325 57 c 0
 407 57 455 97 475 97 c 0
 481 97 487 91 487 86 c 0
 487 72 414 -35 271 -35 c 0
 140 -35 13 32 13 188 c 0
139 298 m 0
 139 290 141 285 152 285 c 0
 197 285 308 294 325 294 c 0
 344 294 346 296 346 304 c 0
 346 327 318 400 240 400 c 0
 169 400 139 329 139 298 c 0
EndSplineSet
EndChar
StartChar: f
Encoding: 102 102 70
Width: 500
Flags: MW
LayerCount: 2
Back
Fore
SplineSet
102 380 m 0
 102 418 113 426 145 426 c 2
 166 426 l 2
 183 426 184 435 184 449 c 0
 184 658 350 763 431 763 c 0
 466 763 490 749 490 726 c 0
 490 718 487 705 484 689 c 0
 478 663 477 646 461 646 c 0
 449 646 453 669 390 669 c 0
 306 669 285 552 285 464 c 2
 285 442 l 2
 285 432 287 424 297 424 c 0
 339 424 372 430 393 436 c 0
 402 439 408 450 414 450 c 0
 417 450 419 444 419 438 c 0
 419 413 410 394 405 381 c 0
 401 372 392 368 380 368 c 0
 333 368 364 366 302 366 c 0
 293 366 286 366 286 357 c 2
 286 301 l 2
 286 284 291 153 293 112 c 0
 294 76 295 25 355 25 c 0
 371 25 371 13 371 2 c 0
 371 -4 370 -13 358 -13 c 0
 354 -13 268 -6 241 -6 c 0
 198 -6 200 -13 154 -13 c 0
 143 -13 136 -10 136 1 c 0
 136 16 187 8 187 69 c 0
 187 97 181 162 181 349 c 0
 181 364 177 365 164 365 c 0
 153 365 141 360 124 360 c 0
 103 360 102 371 102 380 c 0
EndSplineSet
EndChar
StartChar: g
Encoding: 103 103 71
Width: 500
Flags: MW
LayerCount: 2
Back
Fore
SplineSet
6 -104 m 0
 6 -42 114 -27 114 -17 c 0
 114 -11 64 -1 64 44 c 0
 64 113 142 136 142 146 c 0
 142 162 40 176 40 283 c 0
 40 336 74 439 237 439 c 0
 337 439 365 387 381 387 c 0
 398 387 416 399 438 408 c 0
 467 421 461 465 480 465 c 0
 484 465 494 465 494 456 c 0
 494 419 477 374 464 359 c 0
 450 341 428 332 409 326 c 1
 409 326 425 295 425 275 c 0
 425 188 351 119 256 119 c 0
 210 119 191 133 176 133 c 0
 174 133 130 133 130 95 c 0
 130 56 186 53 276 53 c 2
 326 53 l 2
 377 53 483 50 483 -44 c 0
 483 -63 482 -82 475 -98 c 0
 444 -170 343 -216 223 -216 c 0
 131 -216 6 -193 6 -104 c 0
93 -95 m 0
 93 -150 157 -173 225 -173 c 0
 305 -173 391 -146 391 -100 c 0
 391 -58 335 -58 277 -58 c 2
 267 -58 l 2
 212 -58 152 -37 141 -37 c 0
 132 -37 93 -58 93 -95 c 0
154 289 m 0
 154 213 188 156 234 156 c 0
 284 156 308 211 308 270 c 0
 308 336 279 404 225 404 c 0
 188 404 154 366 154 289 c 0
EndSplineSet
EndChar
StartChar: h
Encoding: 104 104 72
Width: 500
Flags: MW
LayerCount: 2
Back
Fore
SplineSet
2 704 m 0
 2 723 47 725 76 737 c 0
 105 749 141 765 154 765 c 0
 167 765 168 748 168 741 c 0
 168 726 162 712 162 676 c 0
 157 397 152 406 152 376 c 0
 152 363 152 356 158 356 c 0
 167 356 210 441 284 441 c 0
 376 441 436 385 436 249 c 2
 436 108 l 2
 436 93 440 54 460 51 c 0
 481 47 498 38 498 20 c 0
 498 0 484 -4 468 -4 c 0
 456 -4 406 3 386 3 c 0
 370 3 319 -2 312 -2 c 0
 300 -2 290 0 290 8 c 0
 290 40 326 0 326 69 c 0
 326 85 328 69 328 228 c 0
 328 307 287 372 240 372 c 0
 213 372 186 352 170 336 c 0
 153 319 150 300 150 167 c 2
 150 146 l 2
 150 102 152 60 180 45 c 0
 196 31 220 45 220 18 c 0
 220 9 216 0 210 0 c 0
 209 0 111 8 106 8 c 0
 93 8 52 0 38 0 c 0
 -4 0 12 6 12 15 c 0
 12 23 13 30 20 35 c 0
 47 47 50 71 50 111 c 2
 56 450 l 1
 56 499 l 2
 56 673 55 693 26 693 c 0
 16 693 16 694 14 694 c 0
 6 694 2 698 2 704 c 0
EndSplineSet
EndChar
StartChar: i
Encoding: 105 105 73
Width: 500
Flags: MW
LayerCount: 2
Back
Fore
SplineSet
116 344 m 0
 116 358 147 359 218 380 c 0
 264 394 262 396 282 396 c 0
 290 396 300 392 300 380 c 0
 300 370 292 354 292 339 c 2
 292 104 l 2
 292 48 325 43 352 41 c 0
 370 39 384 39 384 18 c 0
 384 9 383 -7 364 -7 c 0
 359 -7 352 -6 346 -6 c 0
 295 -6 306 -2 260 -2 c 0
 209 -2 194 -6 174 -6 c 0
 144 -6 126 -3 126 6 c 0
 126 12 133 20 142 23 c 0
 182 35 184 30 184 186 c 2
 184 265 l 2
 184 351 148 328 126 335 c 0
 121 337 116 340 116 344 c 0
168 562 m 0
 168 582 209 645 242 645 c 0
 276 645 312 590 312 560 c 0
 312 524 256 477 242 477 c 0
 198 477 168 538 168 562 c 0
EndSplineSet
EndChar
StartChar: j
Encoding: 106 106 74
Width: 500
Flags: MW
LayerCount: 2
Back
Fore
SplineSet
97 -134 m 0
 97 -113 102 -98 119 -98 c 0
 140 -98 161 -139 177 -139 c 0
 194 -139 200 -106 200 15 c 2
 200 305 l 2
 200 326 199 361 141 361 c 0
 132 361 125 362 125 376 c 0
 125 396 162 388 235 431 c 0
 261 441 283 452 293 452 c 0
 307 452 308 442 308 428 c 2
 308 417 l 2
 308 400 305 380 305 368 c 2
 305 31 l 2
 305 -67 272 -213 146 -213 c 0
 116 -213 99 -204 99 -179 c 0
 99 -165 97 -148 97 -134 c 0
190 591 m 0
 190 617 228 668 261 668 c 0
 296 668 333 621 333 591 c 0
 333 555 281 511 267 511 c 0
 223 511 190 567 190 591 c 0
EndSplineSet
EndChar
StartChar: k
Encoding: 107 107 75
Width: 500
Flags: MW
LayerCount: 2
Back
Fore
SplineSet
-8 684 m 0
 -8 696 4 706 48 724 c 0
 108 740 88 733 132 756 c 0
 142 761 158 769 170 769 c 0
 182 769 186 759 186 750 c 0
 186 740 180 685 180 495 c 0
 180 426 176 357 176 288 c 2
 176 267 l 2
 176 246 177 225 180 225 c 0
 193 225 196 236 208 247 c 0
 328 350 334 364 334 370 c 0
 334 393 294 391 294 408 c 0
 294 414 296 417 304 417 c 0
 308 417 313 417 320 417 c 0
 393 419 431 421 452 421 c 0
 472 421 476 418 476 412 c 0
 476 392 450 407 396 368 c 0
 387 362 386 361 352 332 c 0
 252 255 280 255 280 243 c 0
 280 236 285 227 290 219 c 0
 355 130 387 82 414 51 c 0
 459 -1 508 27 508 3 c 0
 508 -14 497 -14 472 -14 c 0
 460 -14 373 -13 364 -13 c 0
 337 -13 239 146 212 186 c 0
 209 190 206 192 202 192 c 0
 191 192 174 171 174 145 c 0
 174 140 176 135 176 128 c 0
 180 33 177 56 192 32 c 0
 206 10 260 18 260 -1 c 0
 260 -15 231 -17 226 -17 c 0
 215 -17 155 -8 120 -8 c 0
 88 -8 87 -14 40 -14 c 0
 26 -14 14 -13 14 4 c 0
 14 24 30 28 36 31 c 0
 65 43 66 61 66 121 c 0
 66 140 68 156 68 164 c 2
 70 595 l 2
 70 660 45 669 28 669 c 0
 22 669 17 667 10 667 c 0
 0 667 -8 670 -8 684 c 0
EndSplineSet
EndChar
StartChar: l
Encoding: 108 108 76
Width: 500
Flags: MW
LayerCount: 2
Back
Fore
SplineSet
112 700 m 0
 112 719 127 713 196 735 c 0
 228 745 265 763 290 763 c 0
 302 763 304 754 304 744 c 0
 304 729 298 683 298 592 c 2
 298 536 l 2
 298 451 294 453 294 403 c 2
 294 105 l 2
 294 73 300 32 376 32 c 0
 383 32 388 20 388 9 c 0
 388 -8 374 -12 352 -12 c 0
 328 -12 272 -1 236 -1 c 0
 183 -1 168 -14 142 -14 c 0
 129 -14 122 -3 122 2 c 0
 122 29 141 24 156 35 c 0
 180 46 184 65 184 100 c 0
 184 108 182 116 182 126 c 2
 182 200 l 2
 182 285 188 497 188 624 c 0
 188 655 176 683 164 688 c 0
 157 691 142 692 122 692 c 0
 116 692 112 693 112 700 c 0
EndSplineSet
EndChar
StartChar: m
Encoding: 109 109 77
Width: 500
Flags: MW
LayerCount: 2
Back
Fore
SplineSet
9 398 m 0
 9 420 49 414 87 434 c 0
 105 443 110 450 125 450 c 0
 133 450 136 434 136 413 c 0
 136 398 138 400 138 390 c 0
 138 382 135 374 142 374 c 0
 146 374 160 439 223 439 c 0
 290 439 288 368 294 368 c 0
 298 368 336 444 387 444 c 0
 451 444 480 370 485 292 c 0
 488 242 489 198 489 163 c 2
 489 131 l 2
 489 77 490 47 498 39 c 0
 500 36 509 36 509 9 c 0
 509 -14 492 -13 483 -13 c 0
 473 -13 447 -7 431 -7 c 0
 409 -7 390 -13 374 -13 c 0
 365 -13 355 -12 355 -4 c 0
 355 16 367 13 369 32 c 0
 370 40 370 58 370 78 c 2
 370 94 l 2
 370 314 368 301 357 340 c 0
 351 360 342 371 332 371 c 0
 315 371 304 328 304 319 c 0
 304 307 307 296 307 198 c 2
 307 116 l 2
 307 63 310 34 328 25 c 0
 332 22 333 5 333 1 c 0
 333 -15 324 -15 320 -15 c 0
 308 -15 287 -7 266 -7 c 0
 253 -7 207 -15 200 -15 c 0
 195 -15 184 -10 184 5 c 0
 184 19 185 24 191 36 c 0
 193 38 198 39 198 94 c 0
 198 107 200 95 200 197 c 0
 200 256 197 249 197 255 c 0
 197 320 187 365 167 365 c 0
 150 365 134 331 134 293 c 2
 134 279 l 1
 134 94 l 2
 134 -14 160 26 160 3 c 0
 160 -8 160 -12 145 -12 c 0
 134 -12 116 -7 86 -7 c 0
 58 -7 41 -12 30 -12 c 0
 14 -12 13 -3 13 4 c 0
 13 26 23 5 27 50 c 0
 29 72 29 135 29 209 c 0
 29 250 28 294 28 337 c 0
 28 412 9 365 9 398 c 0
EndSplineSet
EndChar
StartChar: o
Encoding: 111 111 79
Width: 500
Flags: MW
LayerCount: 2
Back
Fore
SplineSet
8 201 m 0
 8 318 90 438 252 438 c 0
 372 438 492 360 492 209 c 0
 492 54 368 -27 244 -27 c 0
 87 -27 8 86 8 201 c 0
127 235 m 0
 127 95 203 20 271 20 c 0
 328 20 379 72 379 180 c 0
 379 282 332 395 234 395 c 0
 188 395 127 354 127 235 c 0
EndSplineSet
EndChar
StartChar: p
Encoding: 112 112 80
Width: 500
Flags: MW
LayerCount: 2
Back
Fore
SplineSet
10 374 m 0
 10 392 41 385 118 435 c 0
 154 454 158 458 164 458 c 0
 172 458 178 454 178 440 c 0
 178 407 176 400 176 384 c 0
 176 377 177 373 178 373 c 0
 185 373 226 447 318 447 c 0
 435 447 490 345 490 236 c 0
 490 117 420 -18 290 -18 c 0
 192 -18 182 36 168 36 c 0
 166 36 166 33 166 28 c 2
 166 -91 l 1
 166 -104 l 2
 166 -127 176 -143 180 -155 c 0
 194 -197 250 -162 250 -196 c 0
 250 -199 247 -209 216 -209 c 0
 190 -209 191 -205 112 -205 c 0
 80 -205 63 -208 50 -208 c 0
 19 -208 14 -205 14 -198 c 0
 14 -167 62 -210 62 -93 c 2
 62 -73 l 2
 62 121 68 159 68 200 c 2
 68 221 l 2
 68 319 66 357 30 357 c 0
 10 357 10 364 10 374 c 0
166 190 m 0
 166 171 168 162 168 143 c 0
 168 51 242 29 286 29 c 0
 359 29 392 104 392 184 c 0
 392 275 348 370 266 370 c 0
 233 370 211 356 194 340 c 0
 174 321 166 310 166 190 c 0
EndSplineSet
EndChar
StartChar: q
Encoding: 113 113 81
Width: 500
Flags: MW
LayerCount: 2
Back
Fore
SplineSet
-2 171 m 0
 -2 361 138 439 252 439 c 0
 336 439 389 373 390 373 c 0
 401 373 416 452 440 452 c 0
 446 452 448 449 448 436 c 0
 448 405 442 391 442 234 c 0
 442 47 446 189 446 -86 c 0
 446 -203 502 -168 502 -196 c 0
 502 -204 497 -208 484 -208 c 0
 477 -208 456 -207 412 -207 c 0
 321 -207 322 -214 310 -214 c 0
 288 -214 284 -203 284 -191 c 0
 284 -165 314 -172 326 -157 c 0
 333 -151 334 -142 334 -71 c 0
 334 -29 338 -21 338 -1 c 0
 338 40 333 39 330 39 c 0
 314 39 287 -39 180 -39 c 0
 130 -39 95 -24 66 3 c 0
 -1 66 -2 136 -2 171 c 0
102 218 m 0
 102 88 187 42 232 42 c 0
 331 42 334 110 334 146 c 2
 334 299 l 2
 334 353 271 394 226 394 c 0
 187 394 102 361 102 218 c 0
EndSplineSet
EndChar
StartChar: r
Encoding: 114 114 82
Width: 500
Flags: MW
LayerCount: 2
Back
Fore
SplineSet
95 398 m 0
 95 423 157 420 259 460 c 0
 265 462 276 464 277 464 c 0
 288 464 293 450 293 435 c 0
 293 423 291 411 291 396 c 0
 291 354 293 346 299 346 c 0
 307 346 340 455 404 455 c 0
 425 455 430 447 450 429 c 0
 468 413 471 396 471 389 c 0
 471 333 440 312 437 312 c 0
 414 312 409 334 361 334 c 0
 322 334 287 297 287 278 c 2
 287 183 l 2
 287 80 290 91 290 76 c 0
 290 49 314 44 337 39 c 0
 362 33 387 36 387 13 c 0
 387 2 386 -11 373 -11 c 0
 336 -11 301 -4 274 -4 c 0
 211 -4 173 -11 153 -11 c 0
 127 -11 127 -4 127 7 c 0
 127 19 129 28 140 33 c 0
 176 42 177 64 177 145 c 0
 177 342 174 322 174 342 c 0
 174 361 169 380 125 380 c 0
 122 380 118 382 114 382 c 0
 105 382 95 384 95 398 c 0
EndSplineSet
EndChar
StartChar: s
Encoding: 115 115 83
Width: 500
Flags: MW
LayerCount: 2
Back
Fore
SplineSet
72 37 m 2
 72 131 l 2
 72 147 85 159 96 159 c 0
 128 159 120 140 134 118 c 0
 144 94 176 30 238 30 c 0
 269 30 326 44 326 101 c 0
 326 222 84 124 84 323 c 0
 84 400 169 447 258 447 c 0
 377 447 388 414 388 406 c 0
 388 403 394 351 394 339 c 0
 394 315 389 307 374 307 c 0
 356 307 341 395 248 395 c 0
 209 395 180 374 180 344 c 0
 180 285 244 286 296 268 c 0
 399 232 428 231 428 109 c 0
 428 71 398 31 364 5 c 0
 347 -7 319 -26 248 -26 c 0
 186 -26 134 -2 116 3 c 0
 88 12 72 10 72 37 c 2
EndSplineSet
EndChar
StartChar: t
Encoding: 116 116 84
Width: 500
Flags: MW
LayerCount: 2
Back
Fore
SplineSet
113 372 m 0
 113 391 136 393 180 435 c 0
 231 484 251 531 276 531 c 0
 286 531 290 525 290 508 c 0
 290 490 286 470 286 451 c 0
 286 432 286 431 327 431 c 2
 362 431 l 2
 427 431 428 445 439 445 c 0
 446 445 449 438 449 430 c 0
 449 416 425 353 417 353 c 0
 345 354 314 363 313 363 c 0
 287 363 283 358 283 332 c 0
 283 306 277 209 277 160 c 0
 277 85 288 53 363 53 c 0
 399 53 426 70 437 70 c 0
 444 70 447 68 447 54 c 0
 447 34 389 -23 321 -23 c 0
 175 -23 166 55 166 94 c 2
 166 109 l 2
 166 197 172 334 172 342 c 0
 172 355 168 358 150 358 c 0
 143 358 136 356 131 356 c 0
 119 356 113 358 113 372 c 0
EndSplineSet
EndChar
StartChar: v
Encoding: 118 118 86
Width: 500
Flags: MW
LayerCount: 2
Back
Fore
SplineSet
12 423 m 0
 12 433 28 435 35 435 c 0
 43 435 72 429 121 429 c 0
 156 429 144 428 179 428 c 0
 194 428 212 432 226 432 c 0
 238 432 248 426 248 415 c 0
 248 389 241 388 233 388 c 0
 222 388 208 387 208 363 c 0
 208 344 225 305 257 218 c 0
 272 179 292 111 297 111 c 0
 305 111 399 342 399 371 c 0
 399 423 355 387 355 420 c 0
 355 430 368 432 390 432 c 0
 409 432 397 430 428 430 c 0
 450 430 467 432 480 432 c 0
 506 432 512 428 512 416 c 0
 512 402 493 408 472 377 c 0
 408 284 289 -43 253 -43 c 0
 232 -43 252 -36 115 259 c 0
 33 435 12 396 12 423 c 0
EndSplineSet
EndChar
StartChar: w
Encoding: 119 119 87
Width: 500
Flags: MW
LayerCount: 2
Back
Fore
SplineSet
-6 423 m 0
 -6 433 9 435 16 435 c 0
 25 435 50 429 73 429 c 0
 107 429 86 430 120 430 c 0
 164 430 154 430 154 420 c 0
 154 401 145 418 145 377 c 0
 145 348 148 319 168 236 c 0
 178 195 192 143 194 143 c 0
 195 143 205 176 218 209 c 0
 239 264 236 275 236 297 c 0
 236 304 223 353 218 373 c 0
 207 418 199 405 199 422 c 0
 199 430 211 430 215 430 c 0
 234 430 255 428 290 428 c 0
 305 428 301 429 309 429 c 0
 322 429 322 411 322 406 c 0
 322 392 321 393 319 391 c 0
 316 390 313 386 313 366 c 0
 313 349 320 294 338 220 c 0
 348 181 358 132 360 132 c 0
 363 132 429 338 429 365 c 0
 429 416 418 393 418 420 c 0
 418 427 428 428 439 428 c 2
 476 428 l 2
 501 428 506 426 506 413 c 0
 506 394 489 403 474 372 c 0
 455 333 458 315 370 35 c 0
 354 -16 346 -45 337 -45 c 0
 315 -45 265 198 252 198 c 0
 244 198 171 -40 147 -40 c 0
 136 -40 136 -19 61 259 c 0
 42 330 47 353 8 401 c 0
 -1 413 -6 410 -6 423 c 0
EndSplineSet
EndChar
StartChar: x
Encoding: 120 120 88
Width: 500
Flags: MW
LayerCount: 2
Back
Fore
SplineSet
17 14 m 0
 17 26 22 15 65 42 c 0
 118 76 178 158 211 201 c 0
 214 204 214 208 214 214 c 0
 214 224 192 254 147 320 c 0
 112 371 84 392 73 394 c 0
 42 399 20 413 20 425 c 0
 20 433 30 437 38 437 c 0
 89 437 69 432 117 432 c 0
 155 432 173 436 209 436 c 0
 237 436 241 432 241 423 c 0
 241 409 221 414 221 394 c 0
 221 382 232 363 244 344 c 0
 268 308 282 285 287 285 c 0
 288 285 291 287 295 293 c 0
 347 359 362 367 362 386 c 0
 362 414 336 408 336 424 c 0
 336 429 335 436 357 436 c 0
 373 436 383 435 403 435 c 0
 419 435 454 437 478 437 c 0
 485 437 494 431 494 424 c 0
 494 405 454 422 408 364 c 0
 369 315 316 250 316 243 c 0
 316 236 319 232 387 129 c 0
 406 100 455 51 492 35 c 0
 499 32 501 31 501 17 c 0
 501 3 499 -1 474 -1 c 0
 463 -1 409 2 388 2 c 0
 369 2 356 -1 341 -1 c 2
 332 -1 l 2
 313 -1 304 0 304 10 c 0
 304 23 325 19 325 41 c 0
 325 73 284 106 254 156 c 0
 251 162 247 166 245 166 c 0
 243 166 235 157 234 155 c 0
 199 107 167 83 167 58 c 0
 167 10 209 39 209 9 c 0
 209 3 230 -1 177 -1 c 0
 154 -1 139 4 111 4 c 0
 85 4 80 -2 60 -2 c 0
 26 -2 17 1 17 14 c 0
EndSplineSet
EndChar
StartChar: y
Encoding: 121 121 89
Width: 500
Flags: MW
LayerCount: 2
Back
Fore
SplineSet
10 419 m 0
 10 428 27 431 34 431 c 0
 101 431 105 428 158 428 c 0
 189 428 194 431 227 431 c 0
 240 431 250 422 250 414 c 0
 250 389 242 386 228 386 c 2
 214 386 l 2
 200 386 200 369 200 358 c 0
 200 343 224 308 268 214 c 0
 289 170 301 143 309 143 c 0
 316 143 383 326 383 362 c 0
 383 428 327 385 327 420 c 0
 327 424 328 432 344 432 c 0
 368 432 399 431 415 431 c 0
 430 431 464 432 471 432 c 0
 484 432 490 427 490 419 c 0
 490 401 462 408 451 391 c 0
 441 375 420 317 401 262 c 2
 318 18 l 2
 265 -138 250 -199 236 -199 c 0
 231 -199 235 -200 193 -200 c 0
 188 -200 175 -198 175 -187 c 0
 175 -176 261 -72 261 7 c 0
 261 52 121 287 79 358 c 0
 49 408 10 392 10 419 c 0
EndSplineSet
EndChar
StartChar: z
Encoding: 122 122 90
Width: 500
Flags: MW
LayerCount: 2
Back
Fore
SplineSet
87 -2 m 0
 87 16 92 19 121 61 c 0
 175 140 317 347 317 362 c 0
 317 364 307 367 294 367 c 0
 273 367 199 357 172 355 c 0
 131 353 111 285 97 285 c 0
 95 285 89 287 89 298 c 0
 89 349 100 397 103 422 c 0
 104 434 113 444 123 444 c 0
 134 444 168 440 235 440 c 0
 297 440 342 444 388 444 c 0
 394 444 401 440 401 434 c 0
 401 418 377 382 370 371 c 0
 258 204 183 101 183 73 c 0
 183 66 187 64 205 64 c 0
 224 64 243 66 254 66 c 0
 346 66 346 115 363 135 c 0
 369 142 375 147 389 147 c 0
 398 147 413 143 413 131 c 0
 413 130 399 86 388 59 c 0
 376 30 375 -14 355 -14 c 2
 235 -14 l 2
 219 -14 188 -16 158 -16 c 2
 140 -16 l 2
 109 -16 113 -17 107 -17 c 0
 96 -17 87 -13 87 -2 c 0
EndSplineSet
EndChar
StartChar: braceleft
Encoding: 123 123 91
Width: 500
Flags: MW
LayerCount: 2
Back
Fore
SplineSet
240 266 m 4
 240 299 295 288 295 322 c 4
 295 455 289 598 289 748 c 4
 289 763 301 767 310 767 c 4
 333 767 354 759 383 759 c 4
 425 759 440 768 461 768 c 4
 469 768 482 765 482 753 c 4
 482 697 409 669 383 669 c 4
 379 669 376 664 376 660 c 4
 374 516 372 352 372 239 c 4
 372 146 376 -2 376 -121 c 4
 376 -131 417 -130 449 -147 c 4
 456 -151 483 -168 483 -188 c 4
 483 -192 482 -197 474 -197 c 4
 468 -197 436 -188 389 -188 c 4
 327 -188 327 -202 302 -202 c 4
 294 -202 288 -197 288 -190 c 4
 288 -56 292 81 292 199 c 4
 292 241 240 235 240 266 c 4
EndSplineSet
EndChar
StartChar: bar
Encoding: 124 124 92
Width: 500
Flags: MW
LayerCount: 2
Back
Fore
SplineSet
210 -87 m 2
 210 72 219 372 219 570 c 0
 219 671 218 721 218 738 c 0
 218 755 227 762 255 762 c 0
 283 762 288 754 288 737 c 0
 288 731 286 723 286 714 c 0
 286 698 290 652 290 559 c 0
 290 402 282 160 282 10 c 0
 282 -32 282 -87 284 -137 c 0
 284 -142 285 -152 285 -163 c 2
 285 -171 l 2
 285 -190 284 -209 260 -209 c 0
 215 -209 210 -203 210 -148 c 2
 210 -87 l 2
EndSplineSet
EndChar
StartChar: asciitilde
Encoding: 126 126 126
Width: 500
Flags: MW
LayerCount: 2
Back
Fore
SplineSet
8 164 m 0
 8 168 82 301 166 301 c 0
 235 301 273 234 342 234 c 0
 414 234 446 305 462 305 c 0
 482 305 492 295 492 283 c 0
 492 276 414 149 316 149 c 0
 236 149 209 219 146 219 c 0
 77 219 52 141 38 141 c 0
 18 141 8 146 8 164 c 0
EndSplineSet
EndChar
StartChar: exclamdown
Encoding: 161 161 108
Width: 500
Flags: MW
LayerCount: 2
Back
Fore
SplineSet
152 614 m 0
 152 640 187 655 202 672 c 0
 218 690 231 725 250 725 c 0
 262 725 291 695 304 675 c 0
 316 657 348 638 348 611 c 0
 348 597 331 585 310 564 c 0
 293 546 277 507 252 507 c 0
 240 507 232 520 220 534 c 0
 175 588 152 588 152 614 c 0
176 -17 m 0
 176 -10 178 -2 182 22 c 0
 200 120 197 220 236 430 c 0
 238 437 241 441 256 441 c 0
 268 441 274 437 274 431 c 0
 312 133 298 193 304 133 c 0
 312 63 320 34 320 -12 c 0
 320 -36 289 -50 244 -50 c 0
 200 -50 176 -43 176 -17 c 0
EndSplineSet
EndChar
StartChar: cent
Encoding: 162 162 104
Width: 500
Flags: MW
LayerCount: 2
Back
Fore
SplineSet
27 191 m 0
 27 300 97 404 211 441 c 0
 257 455 258 442 258 473 c 2
 258 513 l 2
 258 520 270 524 282 524 c 0
 298 524 318 520 318 515 c 2
 318 469 l 2
 318 456 326 466 381 455 c 0
 394 453 407 449 420 442 c 0
 431 436 435 437 435 382 c 0
 435 368 434 338 424 338 c 0
 404 338 418 364 341 402 c 0
 329 408 325 409 322 409 c 0
 319 409 316 406 316 389 c 0
 314 136 314 110 314 78 c 0
 314 70 314 64 330 64 c 0
 410 64 449 116 462 116 c 0
 468 116 473 109 473 102 c 0
 473 88 427 -5 325 -23 c 0
 313 -24 312 -23 312 -42 c 2
 312 -121 l 2
 312 -133 296 -136 280 -136 c 0
 271 -136 255 -134 255 -126 c 2
 255 -55 l 2
 255 -35 249 -53 183 -32 c 0
 87 -2 27 75 27 191 c 0
140 257 m 0
 140 135 238 78 250 78 c 0
 253 78 255 81 255 93 c 0
 255 125 254 220 256 409 c 0
 256 423 255 423 239 423 c 0
 219 423 140 396 140 257 c 0
EndSplineSet
EndChar
StartChar: sterling
Encoding: 163 163 105
Width: 500
Flags: MW
LayerCount: 2
Back
Fore
SplineSet
6 39 m 0
 6 69 26 109 86 109 c 0
 131 109 174 77 181 77 c 0
 188 81 204 115 204 144 c 0
 204 200 158 281 148 299 c 0
 138 316 139 320 118 320 c 0
 103 320 78 319 24 319 c 0
 18 319 8 323 8 352 c 0
 8 381 16 386 25 386 c 2
 100 386 l 2
 120 386 122 386 122 387 c 0
 122 393 75 460 75 532 c 0
 75 672 179 728 275 728 c 0
 359 728 440 682 440 617 c 0
 440 592 412 562 398 562 c 0
 377 562 376 596 354 627 c 0
 339 655 305 672 271 672 c 0
 225 672 179 641 179 566 c 0
 179 502 206 444 221 406 c 0
 227 389 229 387 237 387 c 2
 371 387 l 2
 389 387 389 380 389 352 c 0
 389 329 387 320 370 320 c 2
 274 320 l 2
 267 320 256 319 256 316 c 0
 256 311 297 250 297 192 c 0
 297 119 241 65 237 59 c 1
 246 60 295 48 346 48 c 0
 455 48 471 155 484 155 c 0
 489 155 494 148 494 138 c 0
 494 99 459 -36 347 -36 c 0
 257 -36 205 11 197 16 c 0
 183 14 123 -27 64 -27 c 0
 25 -27 6 6 6 39 c 0
63 38 m 0
 63 28 80 15 106 15 c 0
 128 15 155 28 158 34 c 1
 152 31 130 53 99 53 c 0
 78 53 63 50 63 38 c 0
EndSplineSet
EndChar
StartChar: yen
Encoding: 165 165 60
Width: 500
Flags: MW
LayerCount: 2
Back
Fore
SplineSet
8 686 m 0
 8 711 10 713 26 713 c 0
 31 713 58 710 72 710 c 0
 81 710 179 712 190 712 c 0
 204 712 210 707 210 700 c 0
 210 679 193 683 193 664 c 0
 193 634 216 590 227 561 c 0
 253 496 269 435 274 435 c 2
 278 435 l 2
 288 435 290 447 322 504 c 0
 350 554 384 613 384 640 c 0
 384 700 354 667 354 701 c 0
 354 711 365 713 385 713 c 0
 397 713 414 712 431 712 c 0
 481 712 417 710 459 710 c 0
 490 710 513 709 513 695 c 0
 513 685 490 685 469 668 c 0
 438 643 401 555 371 495 c 2
 349 448 l 2
 342 428 337 423 337 419 c 0
 337 416 337 416 407 416 c 0
 411 416 416 406 416 380 c 0
 416 351 412 349 408 349 c 0
 338 349 334 348 319 348 c 0
 311 348 306 341 306 263 c 0
 306 254 307 252 311 252 c 0
 312 252 316 254 319 254 c 2
 397 254 l 2
 410 254 410 241 410 217 c 0
 410 197 409 184 396 184 c 0
 368 184 329 183 315 183 c 0
 307 183 306 181 306 171 c 0
 306 167 307 154 307 128 c 2
 307 108 l 2
 307 45 323 38 328 38 c 0
 329 38 335 32 336 32 c 0
 340 32 342 23 342 15 c 0
 342 -6 337 -8 328 -8 c 0
 300 -8 276 -7 254 -7 c 0
 217 -7 184 -14 173 -14 c 0
 156 -14 144 -6 144 5 c 0
 144 35 162 26 170 35 c 0
 178 40 185 56 185 90 c 0
 185 97 188 140 188 172 c 0
 188 183 187 184 181 184 c 2
 156 184 l 2
 142 184 103 185 99 185 c 0
 97 185 94 194 94 220 c 0
 94 249 96 252 99 252 c 2
 107 252 l 1
 175 252 l 1
 181 252 l 2
 188 252 190 254 190 266 c 0
 190 272 188 279 188 293 c 0
 188 319 184 345 177 347 c 0
 175 347 173 348 171 348 c 2
 104 348 l 2
 95 348 95 360 95 384 c 0
 95 404 95 416 105 416 c 0
 141 416 161 416 161 418 c 0
 161 420 161 428 156 440 c 2
 97 575 l 2
 57 657 30 666 18 666 c 0
 14 666 8 666 8 686 c 0
EndSplineSet
EndChar
StartChar: dieresis
Encoding: 168 168 133
Width: 500
Flags: MW
LayerCount: 2
Back
Fore
SplineSet
74 591 m 0
 74 617 113 668 146 668 c 0
 181 668 218 621 218 591 c 0
 218 555 166 511 152 511 c 0
 108 511 74 567 74 591 c 0
282 591 m 0
 282 617 321 668 354 668 c 0
 389 668 426 621 426 591 c 0
 426 555 374 511 360 511 c 0
 316 511 282 567 282 591 c 0
EndSplineSet
EndChar
StartChar: logicalnot
Encoding: 172 172 129
Width: 500
Flags: MW
LayerCount: 2
Back
Fore
SplineSet
48 217 m 0
 48 243 57 243 64 243 c 2
 434 243 l 2
 449 243 452 241 452 222 c 2
 452 45 l 2
 452 34 448 28 428 28 c 0
 399 28 384 28 384 48 c 2
 384 158 l 2
 384 172 377 175 364 175 c 2
 62 175 l 2
 47 175 48 188 48 217 c 0
EndSplineSet
EndChar
StartChar: acute
Encoding: 180 180 132
Width: 500
Flags: MW
LayerCount: 2
Back
Fore
SplineSet
139 451 m 0
 139 472 174 491 252 679 c 0
 262 703 277 708 283 708 c 0
 289 708 361 701 361 669 c 0
 361 637 278 546 216 481 c 0
 194 457 169 434 157 434 c 0
 148 434 139 442 139 451 c 0
EndSplineSet
EndChar
StartChar: periodcentered
Encoding: 183 183 136
Width: 500
Flags: MW
LayerCount: 2
Back
Fore
SplineSet
178 334 m 0
 178 354 218 415 251 415 c 0
 285 415 322 359 322 329 c 0
 322 293 265 246 251 246 c 0
 207 246 178 310 178 334 c 0
EndSplineSet
EndChar
StartChar: onehalf
Encoding: 189 189 110
Width: 500
Flags: MW
LayerCount: 2
Back
Fore
SplineSet
33 592 m 0
 33 613 58 611 101 635 c 0
 121 646 130 661 138 661 c 0
 146 661 147 652 147 647 c 0
 147 642 146 624 146 617 c 0
 146 592 145 539 145 417 c 0
 145 356 142 319 142 298 c 0
 142 246 151 256 166 252 c 0
 169 250 171 246 171 231 c 0
 171 216 160 212 146 212 c 0
 132 212 119 214 101 214 c 0
 82 214 61 211 48 211 c 0
 39 211 34 215 34 229 c 0
 34 249 39 252 43 252 c 0
 51 252 55 253 56 276 c 0
 58 313 59 376 59 436 c 0
 59 555 61 544 61 556 c 0
 61 578 59 587 52 587 c 0
 45 587 43 580 36 580 c 0
 36 580 33 584 33 592 c 0
97 -73 m 0
 97 -57 293 523 329 622 c 0
 329 623 336 650 350 650 c 0
 360 650 377 642 377 637 c 0
 377 630 375 621 373 616 c 0
 161 -1 137 -86 130 -90 c 0
 128 -91 118 -92 116 -92 c 0
 107 -92 97 -83 97 -73 c 0
297 2 m 2
 297 4 l 2
 297 22 340 60 390 211 c 0
 397 245 401 287 401 322 c 0
 401 354 386 378 360 378 c 0
 321 378 310 345 302 345 c 0
 300 345 299 351 299 357 c 0
 299 366 331 457 406 457 c 0
 449 457 496 431 496 375 c 0
 496 270 371 99 371 88 c 0
 371 84 381 83 392 83 c 2
 404 83 l 2
 444 83 457 84 470 90 c 0
 486 97 497 119 505 119 c 0
 509 119 511 115 511 111 c 0
 511 105 464 10 464 10 c 2
 455 -4 448 -7 441 -7 c 0
 389 -7 387 -4 366 -4 c 0
 353 -4 320 -5 305 -5 c 0
 297 -5 297 -2 297 2 c 2
EndSplineSet
EndChar
StartChar: questiondown
Encoding: 191 191 109
Width: 500
Flags: MW
LayerCount: 2
Back
Fore
SplineSet
102 89 m 0
 102 183 284 283 284 385 c 0
 284 403 276 419 276 429 c 0
 276 435 279 439 288 439 c 0
 321 439 336 387 336 367 c 0
 336 303 228 176 228 119 c 0
 228 66 300 47 328 47 c 0
 361 47 381 71 390 71 c 0
 397 71 398 62 398 58 c 0
 398 34 344 -21 270 -21 c 0
 188 -21 102 16 102 89 c 0
210 603 m 0
 210 629 237 638 250 655 c 0
 264 673 277 708 292 708 c 0
 302 708 328 678 340 658 c 0
 350 640 376 627 376 606 c 0
 376 592 353 564 336 544 c 0
 321 526 306 496 290 496 c 0
 278 496 255 543 250 549 c 0
 245 555 210 588 210 603 c 0
EndSplineSet
EndChar
StartChar: Ccedilla
Encoding: 199 199 101
Width: 500
Flags: MW
LayerCount: 2
Back
Fore
SplineSet
30 321 m 0
 30 540 113 724 271 724 c 0
 359 724 403 654 409 654 c 0
 413 654 447 684 452 684 c 0
 456 684 461 679 461 668 c 0
 462 604 468 501 468 489 c 0
 468 474 464 472 462 472 c 0
 459 472 456 478 454 485 c 0
 425 590 373 661 308 661 c 0
 226 661 165 549 165 382 c 0
 165 207 209 38 331 38 c 0
 393 38 441 123 458 183 c 0
 460 190 462 189 466 189 c 0
 469 189 470 182 470 174 c 0
 470 148 468 95 466 72 c 0
 465 62 454 51 449 47 c 0
 394 1 350 -33 284 -33 c 0
 92 -33 30 159 30 321 c 0
203 -58 m 4
 203 -52 214 -43 228 -31 c 4
 239 -22 249 -5 265 -5 c 4
 272 -5 330 -29 330 -97 c 4
 330 -198 243 -241 224 -241 c 4
 216 -241 213 -233 213 -230 c 4
 213 -215 255 -210 255 -148 c 4
 255 -82 203 -88 203 -58 c 4
EndSplineSet
EndChar
StartChar: Ntilde
Encoding: 209 209 102
Width: 500
Flags: MW
LayerCount: 2
Back
Fore
SplineSet
12 689 m 0
 12 700 18 716 28 716 c 0
 35 716 46 714 51 714 c 0
 68 714 87 718 99 718 c 0
 106 718 126 708 132 700 c 0
 136 694 157 660 178 627 c 0
 263 497 304 396 341 335 c 0
 360 304 365 311 369 311 c 0
 374 311 375 309 375 341 c 2
 375 382 l 2
 375 435 372 499 372 520 c 2
 372 527 l 2
 372 677 341 653 316 666 c 0
 308 672 304 684 304 693 c 0
 304 705 306 716 319 716 c 0
 328 716 385 714 394 714 c 0
 427 714 449 718 464 718 c 0
 481 718 488 713 488 692 c 0
 488 675 468 663 467 661 c 0
 462 656 447 632 447 548 c 2
 447 510 l 2
 447 369 439 115 439 16 c 2
 439 -4 l 2
 439 -17 438 -27 430 -27 c 0
 426 -27 421 -23 419 -20 c 0
 173 391 142 474 135 474 c 0
 130 474 128 426 128 385 c 0
 128 295 120 166 120 118 c 0
 120 -1 182 36 182 3 c 0
 182 -13 178 -14 171 -14 c 0
 152 -14 150 -12 92 -12 c 0
 78 -12 60 -14 37 -14 c 0
 29 -14 22 -13 22 2 c 0
 22 28 57 -1 67 78 c 0
 71 111 81 416 81 489 c 0
 81 553 64 635 20 666 c 0
 13 671 12 681 12 689 c 0
68 754 m 0
 68 778 146 910 214 910 c 0
 288 910 291 838 365 838 c 0
 415 838 444 918 458 918 c 0
 464 918 473 915 473 900 c 0
 473 873 397 750 329 750 c 0
 254 750 242 823 176 823 c 0
 124 823 97 742 83 742 c 0
 77 742 68 744 68 754 c 0
EndSplineSet
EndChar
StartChar: Odieresis
Encoding: 214 214 111
Width: 500
Flags: MW
LayerCount: 2
Back
Fore
SplineSet
4 337 m 0
 4 558 88 732 252 732 c 0
 447 732 496 497 496 392 c 0
 496 103 385 -29 244 -29 c 0
 84 -29 4 152 4 337 c 0
142 388 m 4
 142 265 172 39 262 39 c 0
 306 39 360 124 360 302 c 0
 360 546 312 670 242 670 c 0
 188 670 142 585 142 388 c 4
73 845 m 4
 73 871 111 922 144 922 c 4
 179 922 216 875 216 845 c 4
 216 809 165 765 151 765 c 4
 107 765 73 821 73 845 c 4
281 845 m 4
 281 871 319 922 352 922 c 4
 387 922 424 875 424 845 c 4
 424 809 372 765 358 765 c 4
 314 765 281 821 281 845 c 4
EndSplineSet
EndChar
StartChar: germandbls
Encoding: 223 223 99
Width: 500
Flags: MW
LayerCount: 2
Back
Fore
SplineSet
0 6 m 0
 0 29 34 0 34 73 c 2
 34 369 l 2
 34 373 14 392 14 402 c 0
 14 422 34 411 34 426 c 0
 34 595 123 728 256 728 c 0
 312 728 402 710 402 604 c 0
 402 482 278 434 278 367 c 0
 278 275 500 246 500 113 c 0
 500 76 477 -22 350 -22 c 0
 288 -22 249 0 232 5 c 0
 204 14 188 13 188 40 c 2
 188 134 l 2
 188 150 201 162 212 162 c 0
 244 162 236 142 250 119 c 0
 260 94 283 17 344 17 c 0
 375 17 418 38 418 94 c 0
 418 185 198 211 198 333 c 0
 198 421 308 463 308 590 c 0
 308 658 277 690 242 690 c 0
 201 690 140 653 140 432 c 0
 140 422 142 385 142 372 c 0
 142 352 136 273 136 174 c 2
 136 106 l 2
 136 53 142 38 160 31 c 0
 170 25 174 15 174 5 c 0
 174 -1 166 -8 156 -8 c 0
 153 -8 118 -2 96 -2 c 0
 67 -2 25 -7 16 -7 c 0
 5 -7 0 -2 0 6 c 0
EndSplineSet
EndChar
StartChar: aacute
Encoding: 225 225 125
Width: 500
Flags: MW
LayerCount: 2
Back
Fore
SplineSet
181 451 m 4
 181 472 216 491 294 679 c 4
 304 703 319 708 325 708 c 4
 331 708 403 701 403 669 c 4
 403 637 320 546 258 481 c 4
 236 457 211 434 199 434 c 4
 190 434 181 442 181 451 c 4
16 74 m 0
 16 183 137 193 282 215 c 0
 295 217 302 218 302 231 c 0
 302 251 306 267 306 283 c 0
 306 370 236 392 208 392 c 0
 145 392 136 359 136 335 c 0
 136 321 142 310 142 301 c 0
 142 285 132 282 116 282 c 0
 98 282 22 287 22 324 c 0
 22 379 124 442 230 442 c 0
 415 442 414 351 414 312 c 0
 414 177 407 197 408 119 c 0
 409 -15 484 43 484 6 c 0
 484 -10 458 -15 408 -15 c 0
 339 -15 320 56 314 56 c 0
 309 56 242 -26 156 -26 c 0
 105 -26 73 -20 46 4 c 0
 25 22 16 47 16 74 c 0
134 106 m 0
 134 63 160 35 210 35 c 0
 302 35 302 101 302 132 c 2
 302 186 l 2
 302 192 300 195 296 195 c 0
 293 195 289 193 286 193 c 0
 222 183 134 185 134 106 c 0
EndSplineSet
EndChar
StartChar: ccedilla
Encoding: 231 231 100
Width: 500
Flags: MW
LayerCount: 2
Back
Fore
SplineSet
203 -58 m 4
 203 -52 214 -43 228 -31 c 4
 239 -22 249 -5 265 -5 c 4
 272 -5 330 -29 330 -97 c 4
 330 -198 243 -241 224 -241 c 4
 216 -241 213 -233 213 -230 c 4
 213 -215 255 -210 255 -148 c 4
 255 -82 203 -88 203 -58 c 4
36 189 m 0
 36 318 137 439 294 439 c 0
 339 439 422 423 424 402 c 0
 425 389 426 368 426 349 c 0
 426 323 422 300 414 300 c 0
 400 300 399 317 382 330 c 0
 359 349 301 379 248 379 c 0
 228 379 150 354 150 224 c 0
 150 129 223 44 320 44 c 0
 400 44 439 93 452 93 c 0
 458 93 464 86 464 80 c 0
 464 69 406 -35 264 -35 c 0
 128 -35 36 48 36 189 c 0
EndSplineSet
EndChar
StartChar: egrave
Encoding: 232 232 124
Width: 500
Flags: MW
LayerCount: 2
Back
Fore
SplineSet
112 669 m 4
 112 701 186 708 192 708 c 4
 198 708 211 703 222 679 c 4
 300 491 336 472 336 451 c 4
 336 442 327 434 318 434 c 4
 306 434 282 457 259 481 c 4
 197 546 112 637 112 669 c 4
13 188 m 0
 13 324 112 438 261 438 c 0
 444 438 486 283 486 267 c 0
 486 252 471 248 439 248 c 2
 177 248 l 1
 143 248 l 2
 130 248 130 247 130 238 c 0
 130 119 229 57 325 57 c 0
 407 57 455 97 475 97 c 0
 481 97 487 91 487 86 c 0
 487 72 414 -35 271 -35 c 0
 140 -35 13 32 13 188 c 0
139 298 m 0
 139 290 141 285 152 285 c 0
 197 285 308 294 325 294 c 0
 344 294 346 296 346 304 c 0
 346 327 318 400 240 400 c 0
 169 400 139 329 139 298 c 0
EndSplineSet
EndChar
StartChar: eacute
Encoding: 233 233 97
Width: 500
Flags: MW
LayerCount: 2
Back
Fore
SplineSet
181 451 m 4
 181 472 216 491 294 679 c 4
 304 703 319 708 325 708 c 4
 331 708 403 701 403 669 c 4
 403 637 320 546 258 481 c 4
 236 457 211 434 199 434 c 4
 190 434 181 442 181 451 c 4
13 188 m 0
 13 324 112 438 261 438 c 0
 444 438 486 283 486 267 c 0
 486 252 471 248 439 248 c 2
 177 248 l 1
 143 248 l 2
 130 248 130 247 130 238 c 0
 130 119 229 57 325 57 c 0
 407 57 455 97 475 97 c 0
 481 97 487 91 487 86 c 0
 487 72 414 -35 271 -35 c 0
 140 -35 13 32 13 188 c 0
139 298 m 0
 139 290 141 285 152 285 c 0
 197 285 308 294 325 294 c 0
 344 294 346 296 346 304 c 0
 346 327 318 400 240 400 c 0
 169 400 139 329 139 298 c 0
EndSplineSet
EndChar
StartChar: ecircumflex
Encoding: 234 234 119
Width: 500
Flags: MW
LayerCount: 2
Back
Fore
SplineSet
83 481 m 4
 83 483 86 488 89 493 c 4
 219 650 204 666 230 666 c 6
 268 666 l 6
 277 666 284 666 293 652 c 4
 350 568 422 495 422 483 c 4
 422 473 410 473 406 473 c 4
 386 473 261 558 251 558 c 4
 231 558 119 474 98 474 c 4
 94 474 83 475 83 481 c 4
13 188 m 0
 13 324 112 438 261 438 c 0
 444 438 486 283 486 267 c 0
 486 252 471 248 439 248 c 2
 177 248 l 1
 143 248 l 2
 130 248 130 247 130 238 c 0
 130 119 229 57 325 57 c 0
 407 57 455 97 475 97 c 0
 481 97 487 91 487 86 c 0
 487 72 414 -35 271 -35 c 0
 140 -35 13 32 13 188 c 0
139 298 m 0
 139 290 141 285 152 285 c 0
 197 285 308 294 325 294 c 0
 344 294 346 296 346 304 c 0
 346 327 318 400 240 400 c 0
 169 400 139 329 139 298 c 0
EndSplineSet
EndChar
StartChar: iacute
Encoding: 237 237 98
Width: 500
Flags: MW
LayerCount: 2
Back
Fore
SplineSet
181 451 m 0
 181 472 216 491 294 679 c 0
 304 703 319 708 325 708 c 0
 331 708 403 701 403 669 c 0
 403 637 320 546 258 481 c 0
 236 457 211 434 199 434 c 0
 190 434 181 442 181 451 c 0
116 344 m 0
 116 358 147 359 218 380 c 0
 264 394 262 396 282 396 c 0
 290 396 300 392 300 380 c 0
 300 370 292 354 292 339 c 2
 292 104 l 2
 292 48 325 43 352 41 c 0
 370 39 384 39 384 18 c 0
 384 9 383 -7 364 -7 c 0
 359 -7 352 -6 346 -6 c 0
 295 -6 306 -2 260 -2 c 0
 209 -2 194 -6 174 -6 c 0
 144 -6 126 -3 126 6 c 0
 126 12 133 20 142 23 c 0
 182 35 184 30 184 186 c 2
 184 265 l 2
 184 351 148 328 126 335 c 0
 121 337 116 340 116 344 c 0
EndSplineSet
EndChar
StartChar: icircumflex
Encoding: 238 238 120
Width: 500
Flags: MW
LayerCount: 2
Back
Fore
SplineSet
83 431 m 0
 83 433 86 438 89 443 c 0
 219 600 204 616 230 616 c 2
 268 616 l 2
 277 616 284 616 293 602 c 0
 350 518 422 445 422 433 c 0
 422 423 410 423 406 423 c 0
 386 423 261 508 251 508 c 0
 231 508 119 424 98 424 c 0
 94 424 83 425 83 431 c 0
116 344 m 0
 116 358 147 359 218 380 c 0
 264 394 262 396 282 396 c 0
 290 396 300 392 300 380 c 0
 300 370 292 354 292 339 c 2
 292 104 l 2
 292 48 325 43 352 41 c 0
 370 39 384 39 384 18 c 0
 384 9 383 -7 364 -7 c 0
 359 -7 352 -6 346 -6 c 0
 295 -6 306 -2 260 -2 c 0
 209 -2 194 -6 174 -6 c 0
 144 -6 126 -3 126 6 c 0
 126 12 133 20 142 23 c 0
 182 35 184 30 184 186 c 2
 184 265 l 2
 184 351 148 328 126 335 c 0
 121 337 116 340 116 344 c 0
EndSplineSet
EndChar
StartChar: idieresis
Encoding: 239 239 115
Width: 500
Flags: MW
LayerCount: 2
Back
Fore
SplineSet
73 540 m 0
 73 566 111 617 144 617 c 0
 179 617 216 570 216 540 c 0
 216 504 165 460 151 460 c 0
 107 460 73 516 73 540 c 0
281 540 m 0
 281 566 319 617 352 617 c 0
 387 617 424 570 424 540 c 0
 424 504 372 460 358 460 c 0
 314 460 281 516 281 540 c 0
116 344 m 0
 116 358 147 359 218 380 c 0
 264 394 262 396 282 396 c 0
 290 396 300 392 300 380 c 0
 300 370 292 354 292 339 c 2
 292 104 l 2
 292 48 325 43 352 41 c 0
 370 39 384 39 384 18 c 0
 384 9 383 -7 364 -7 c 0
 359 -7 352 -6 346 -6 c 0
 295 -6 306 -2 260 -2 c 0
 209 -2 194 -6 174 -6 c 0
 144 -6 126 -3 126 6 c 0
 126 12 133 20 142 23 c 0
 182 35 184 30 184 186 c 2
 184 265 l 2
 184 351 148 328 126 335 c 0
 121 337 116 340 116 344 c 0
EndSplineSet
EndChar
StartChar: ntilde
Encoding: 241 241 103
Width: 500
Flags: MW
LayerCount: 2
Back
Fore
SplineSet
39 519 m 0
 39 543 117 675 185 675 c 0
 259 675 262 603 336 603 c 0
 386 603 415 683 429 683 c 0
 435 683 444 680 444 665 c 0
 444 638 368 515 300 515 c 0
 225 515 213 588 147 588 c 0
 95 588 68 507 54 507 c 0
 48 507 39 509 39 519 c 0
6 369 m 0
 6 388 34 388 57 397 c 0
 103 413 141 442 151 442 c 2
 153 442 l 2
 161 442 162 435 162 426 c 0
 162 417 161 406 161 385 c 0
 161 362 164 355 167 355 c 0
 173 355 176 371 207 401 c 0
 228 421 256 430 284 430 c 0
 409 430 436 318 436 267 c 0
 436 251 437 267 437 128 c 2
 437 107 l 2
 437 62 440 45 480 36 c 0
 493 32 494 26 494 14 c 0
 494 2 484 -2 474 -2 c 0
 434 -2 415 6 393 6 c 0
 368 6 329 0 317 0 c 0
 304 0 297 8 297 20 c 0
 297 41 313 40 314 42 c 0
 328 47 330 78 330 102 c 2
 330 224 l 2
 330 324 283 364 239 364 c 0
 193 364 164 320 161 309 c 0
 157 296 155 197 155 167 c 2
 155 133 l 2
 155 81 159 46 195 42 c 0
 199 42 223 38 223 20 c 0
 223 4 213 0 205 0 c 0
 170 0 180 6 137 6 c 0
 97 6 39 0 31 0 c 0
 20 0 18 3 18 9 c 0
 18 38 51 0 53 99 c 0
 55 151 56 142 56 169 c 2
 56 303 l 2
 56 347 42 353 26 353 c 2
 19 353 l 2
 9 353 6 359 6 369 c 0
EndSplineSet
EndChar
StartChar: oacute
Encoding: 243 243 106
Width: 500
Flags: MW
LayerCount: 2
Back
Fore
SplineSet
181 451 m 4
 181 472 216 491 294 679 c 4
 304 703 319 708 325 708 c 4
 331 708 403 701 403 669 c 4
 403 637 320 546 258 481 c 4
 236 457 211 434 199 434 c 4
 190 434 181 442 181 451 c 4
8 201 m 0
 8 318 90 438 252 438 c 0
 372 438 492 360 492 209 c 0
 492 54 368 -27 244 -27 c 0
 87 -27 8 86 8 201 c 0
127 235 m 0
 127 95 203 20 271 20 c 0
 328 20 379 72 379 180 c 0
 379 282 332 395 234 395 c 0
 188 395 127 354 127 235 c 0
EndSplineSet
EndChar
StartChar: ocircumflex
Encoding: 244 244 121
Width: 500
Flags: MW
LayerCount: 2
Back
Fore
SplineSet
83 481 m 4
 83 483 86 488 89 493 c 4
 219 650 204 666 230 666 c 6
 268 666 l 6
 277 666 284 666 293 652 c 4
 350 568 422 495 422 483 c 4
 422 473 410 473 406 473 c 4
 386 473 261 558 251 558 c 4
 231 558 119 474 98 474 c 4
 94 474 83 475 83 481 c 4
8 201 m 0
 8 318 90 438 252 438 c 0
 372 438 492 360 492 209 c 0
 492 54 368 -27 244 -27 c 0
 87 -27 8 86 8 201 c 0
127 235 m 0
 127 95 203 20 271 20 c 0
 328 20 379 72 379 180 c 0
 379 282 332 395 234 395 c 0
 188 395 127 354 127 235 c 0
EndSplineSet
EndChar
StartChar: odieresis
Encoding: 246 246 116
Width: 500
Flags: MW
LayerCount: 2
Back
Fore
SplineSet
73 591 m 0
 73 617 111 668 144 668 c 0
 179 668 216 621 216 591 c 0
 216 555 165 511 151 511 c 0
 107 511 73 567 73 591 c 0
281 591 m 0
 281 617 319 668 352 668 c 0
 387 668 424 621 424 591 c 0
 424 555 372 511 358 511 c 0
 314 511 281 567 281 591 c 0
8 201 m 0
 8 318 90 438 252 438 c 0
 372 438 492 360 492 209 c 0
 492 54 368 -27 244 -27 c 0
 87 -27 8 86 8 201 c 0
127 235 m 0
 127 95 203 20 271 20 c 0
 328 20 379 72 379 180 c 0
 379 282 332 395 234 395 c 0
 188 395 127 354 127 235 c 0
EndSplineSet
EndChar
StartChar: ugrave
Encoding: 249 249 96
Width: 500
Flags: MW
LayerCount: 2
Back
Fore
SplineSet
112 669 m 4
 112 701 186 708 192 708 c 4
 198 708 211 703 222 679 c 4
 300 491 336 472 336 451 c 4
 336 442 327 434 318 434 c 4
 306 434 282 457 259 481 c 4
 197 546 112 637 112 669 c 4
4 390 m 0
 4 410 15 425 82 425 c 0
 97 425 139 432 146 432 c 0
 172 432 174 430 174 383 c 0
 174 330 166 312 166 207 c 0
 166 76 213 47 244 47 c 0
 303 47 332 74 332 161 c 2
 328 290 l 2
 328 348 327 368 298 372 c 0
 290 374 282 380 282 392 c 0
 282 413 305 428 380 428 c 0
 397 428 408 432 418 432 c 0
 441 432 446 427 446 404 c 0
 446 398 442 287 442 153 c 0
 442 74 446 49 462 49 c 0
 468 49 474 50 480 50 c 0
 490 50 496 46 496 31 c 0
 496 7 489 6 462 6 c 0
 433 6 372 -11 362 -11 c 0
 350 -11 352 52 346 52 c 0
 339 52 293 -33 206 -33 c 0
 109 -33 50 20 50 143 c 0
 50 307 52 289 52 325 c 0
 52 355 37 369 30 369 c 2
 16 369 l 2
 8 369 4 373 4 390 c 0
EndSplineSet
EndChar
StartChar: uacute
Encoding: 250 250 107
Width: 500
Flags: MW
LayerCount: 2
Back
Fore
SplineSet
181 451 m 4
 181 472 216 491 294 679 c 4
 304 703 319 708 325 708 c 4
 331 708 403 701 403 669 c 4
 403 637 320 546 258 481 c 4
 236 457 211 434 199 434 c 4
 190 434 181 442 181 451 c 4
4 390 m 0
 4 410 15 425 82 425 c 0
 97 425 139 432 146 432 c 0
 172 432 174 430 174 383 c 0
 174 330 166 312 166 207 c 0
 166 76 213 47 244 47 c 0
 303 47 332 74 332 161 c 2
 328 290 l 2
 328 348 327 368 298 372 c 0
 290 374 282 380 282 392 c 0
 282 413 305 428 380 428 c 0
 397 428 408 432 418 432 c 0
 441 432 446 427 446 404 c 0
 446 398 442 287 442 153 c 0
 442 74 446 49 462 49 c 0
 468 49 474 50 480 50 c 0
 490 50 496 46 496 31 c 0
 496 7 489 6 462 6 c 0
 433 6 372 -11 362 -11 c 0
 350 -11 352 52 346 52 c 0
 339 52 293 -33 206 -33 c 0
 109 -33 50 20 50 143 c 0
 50 307 52 289 52 325 c 0
 52 355 37 369 30 369 c 2
 16 369 l 2
 8 369 4 373 4 390 c 0
EndSplineSet
EndChar
StartChar: quoteleft
Encoding: 8216 8216 135
Width: 500
Flags: MW
LayerCount: 2
Back
Fore
SplineSet
302 523 m 0
 302 706 414 785 439 785 c 0
 449 785 456 772 456 767 c 0
 456 738 400 728 400 615 c 0
 400 495 469 505 469 451 c 0
 469 439 452 423 435 402 c 0
 420 384 408 355 386 355 c 0
 376 355 302 400 302 523 c 0
EndSplineSet
EndChar
StartChar: overline
Encoding: 8254 8254 94
Width: 500
Flags: MW
LayerCount: 2
Back
Fore
SplineSet
0 708 m 0
 0 728 2 740 29 740 c 2
 476 740 l 2
 500 740 500 729 500 708 c 0
 500 682 500 672 468 672 c 2
 27 672 l 2
 0 672 0 682 0 708 c 0
EndSplineSet
EndChar
StartChar: celsius
Encoding: 8451 8451 137
Width: 500
Flags: MW
LayerCount: 2
Back
Fore
SplineSet
10 611 m 0
 10 658 44 724 95 724 c 0
 155 724 178 645 178 604 c 0
 178 523 110 491 95 491 c 0
 20 491 10 578 10 611 c 0
74 608 m 0
 74 578 82 559 94 559 c 0
 98 559 114 568 114 608 c 0
 114 626 111 656 94 656 c 0
 84 656 74 636 74 608 c 0
132 321 m 0
 132 540 198 724 324 724 c 0
 394 724 441 639 446 639 c 0
 449 639 463 665 467 665 c 0
 470 665 475 660 475 649 c 0
 476 585 480 501 480 489 c 0
 480 474 477 472 476 472 c 0
 474 472 472 478 470 485 c 0
 446 590 389 661 344 661 c 0
 286 661 251 549 251 382 c 0
 251 207 276 38 361 38 c 0
 404 38 464 123 473 183 c 0
 474 190 476 189 478 189 c 0
 480 189 482 182 482 174 c 0
 482 148 475 89 473 66 c 0
 472 56 468 51 464 47 c 0
 420 1 387 -33 334 -33 c 0
 181 -33 132 159 132 321 c 0
EndSplineSet
EndChar
StartChar: minus
Encoding: 8722 8722 131
Width: 500
Flags: MW
LayerCount: 2
Back
Fore
SplineSet
36 213 m 0
 36 233 36 243 53 243 c 2
 452 243 l 2
 466 243 467 232 467 211 c 0
 467 185 467 175 447 175 c 2
 52 175 l 2
 25 175 36 187 36 213 c 0
EndSplineSet
EndChar
StartChar: zero.slash
Encoding: 63032 63032 127
Width: 500
Flags: MW
LayerCount: 2
Back
Fore
SplineSet
34 324 m 0
 34 576 140 727 264 727 c 0
 293 727 319 719 342 705 c 1
 344 712 345 716 345 717 c 0
 349 732 355 735 370 735 c 0
 378 735 388 733 388 723 c 0
 388 714 381 697 379 691 c 2
 373 677 l 1
 442 614 477 496 477 363 c 0
 477 155 404 -26 257 -26 c 0
 225 -26 198 -19 174 -7 c 1
 171 -18 l 1
 171 -18 155 -49 142 -49 c 0
 131 -49 120 -49 120 -36 c 0
 120 -29 127 -11 134 8 c 0
 135 12 137 15 138 19 c 1
 60 81 34 201 34 324 c 0
130 416 m 0
 130 333 156 233 182 166 c 1
 218 286 269 456 304 575 c 1
 284 600 247 629 218 629 c 0
 164 629 130 548 130 416 c 0
209 113 m 1
 231 78 272 40 303 40 c 0
 361 40 389 134 389 274 c 0
 389 361 360 466 331 530 c 1
 209 113 l 1
EndSplineSet
EndChar
